<svg width="56" height="55" viewBox="0 0 56 55" fill="none" xmlns="http://www.w3.org/2000/svg">
<g id="ri:github-fill">
<path id="Vector" d="M28.0026 4.58325C15.3412 4.58325 5.08595 14.8385 5.08595 27.4999C5.0818 32.3108 6.5933 37.0008 9.40586 40.9039C12.2184 44.807 16.1891 47.7249 20.7541 49.2433C21.8999 49.4426 22.3307 48.7551 22.3307 48.1524C22.3307 47.6093 22.3009 45.8058 22.3009 43.8853C16.5443 44.9464 15.0547 42.4828 14.5964 41.1926C14.3374 40.5326 13.2214 38.4999 12.2474 37.9545C11.4453 37.526 10.2995 36.4649 12.2176 36.4374C14.0234 36.4076 15.3114 38.0989 15.7422 38.7864C17.8047 42.2514 21.0978 41.2774 22.4155 40.677C22.6172 39.1874 23.2176 38.186 23.8776 37.613C18.7787 37.0401 13.4505 35.0624 13.4505 26.2968C13.4505 23.8035 14.3374 21.7433 15.7995 20.1391C15.5703 19.5662 14.7682 17.2172 16.0287 14.0662C16.0287 14.0662 17.9468 13.4635 22.3307 16.4128C24.1965 15.8964 26.124 15.6366 28.0599 15.6405C30.0078 15.6405 31.9557 15.8972 33.7891 16.4128C38.173 13.4337 40.0911 14.0662 40.0911 14.0662C41.3516 17.2172 40.5495 19.5662 40.3203 20.1391C41.7801 21.7433 42.6693 23.776 42.6693 26.2968C42.6693 35.0922 37.3137 37.0401 32.2147 37.613C33.0443 38.328 33.7616 39.703 33.7616 41.8526C33.7616 44.9166 33.7318 47.3801 33.7318 48.1547C33.7318 48.7551 34.1626 49.4701 35.3084 49.241C39.8563 47.7035 43.8079 44.7793 46.6076 40.8796C49.4074 36.9798 50.9145 32.3006 50.917 27.4999C50.917 14.8385 40.6618 4.58325 28.0003 4.58325" fill="#6C3401"/>
</g>
</svg>
