<svg width="32" height="19" viewBox="0 0 32 19" fill="none" xmlns="http://www.w3.org/2000/svg">
<path id="Vector" opacity="0.85" d="M31.1581 0.843817C30.893 0.576331 30.578 0.364117 30.2313 0.219324C29.8846 0.0745302 29.513 -1.08711e-07 29.1376 -1.25117e-07C28.7623 -1.41524e-07 28.3906 0.0745302 28.044 0.219323C27.6973 0.364117 27.3823 0.576331 27.1172 0.843817L15.9975 12.0391L4.87782 0.843816C4.34196 0.304312 3.61518 0.00122053 2.85736 0.00122049C2.09954 0.00122046 1.37276 0.304311 0.836897 0.843816C0.301039 1.38332 1.8149e-06 2.11504 1.78155e-06 2.87802C1.7482e-06 3.64099 0.301039 4.37272 0.836897 4.91222L13.9914 18.1562C14.2565 18.4237 14.5714 18.6359 14.9181 18.7807C15.2648 18.9255 15.6365 19 16.0118 19C16.3872 19 16.7588 18.9255 17.1055 18.7807C17.4522 18.6359 17.7672 18.4237 18.0323 18.1562L31.1868 4.91222C32.2758 3.81577 32.2758 1.96912 31.1581 0.843817Z" fill="#6C3401"/>
</svg>
