<svg width="38" height="38" viewBox="0 0 38 38" fill="none" xmlns="http://www.w3.org/2000/svg">
<g id="iwwa:delete">
<path id="Vector" d="M20.4237 18.9942L31.1169 8.29058C31.3056 8.101 31.4114 7.84438 31.4112 7.57693C31.411 7.30949 31.3049 7.05301 31.116 6.86368C30.7379 6.48748 30.0719 6.48558 29.69 6.86558L18.9997 17.5692L8.30551 6.86273C7.92551 6.48748 7.25956 6.48938 6.88146 6.86463C6.78761 6.9581 6.71332 7.06933 6.66292 7.19183C6.61252 7.31432 6.58702 7.44563 6.58791 7.57808C6.58791 7.84788 6.69241 8.10058 6.88146 8.28773L17.5747 18.9933L6.88241 29.6998C6.69373 29.8897 6.58806 30.1466 6.5886 30.4143C6.58913 30.682 6.69582 30.9385 6.88526 31.1276C7.06861 31.3091 7.32796 31.4136 7.59586 31.4136H7.60156C7.87041 31.4126 8.12976 31.3072 8.30931 31.1238L18.9997 20.4202L29.6938 31.1267C29.8829 31.3148 30.1356 31.4193 30.4035 31.4193C30.5359 31.4194 30.667 31.3934 30.7893 31.3428C30.9117 31.2922 31.0228 31.218 31.1165 31.1243C31.2101 31.0307 31.2843 30.9195 31.3349 30.7972C31.3856 30.6749 31.4115 30.5437 31.4114 30.4113C31.4114 30.1425 31.3069 29.8888 31.1169 29.7017L20.4237 18.9942Z" fill="#6C3401"/>
</g>
</svg>
