<svg xmlns="http://www.w3.org/2000/svg" width="152" height="186" viewBox="0 0 152 186" fill="none">
  <path d="M107.964 156.632C107.649 156.632 100.423 173.097 100.423 173.097L93.4053 171.074C93.4053 171.074 97.7692 152.55 97.455 152.969C97.1408 153.388 107.964 156.667 107.964 156.667V156.632Z" fill="#EEABA2"/>
  <g style="mix-blend-mode:multiply">
    <path d="M93.4057 171.039C93.3708 169.435 93.5105 167.9 93.7199 166.33C93.8945 164.795 94.2087 163.26 94.5229 161.76C94.9069 160.26 95.2561 158.76 95.7797 157.295C96.2336 155.83 96.8271 154.364 97.4206 152.934C97.6301 154.539 97.4206 156.109 97.246 157.644C97.0715 159.213 96.7573 160.713 96.4431 162.214C96.059 163.714 95.7099 165.214 95.1862 166.679C94.6975 168.144 94.1389 169.609 93.4057 171.039Z" fill="#DB9574"/>
  </g>
  <g style="mix-blend-mode:multiply">
    <path d="M107.964 156.632C107.545 158.097 107.161 159.562 106.637 160.993C106.183 162.423 105.59 163.818 104.996 165.214C104.368 166.574 103.705 167.935 102.937 169.26C102.168 170.586 101.4 171.877 100.423 173.097C100.667 171.563 101.086 170.097 101.54 168.632C101.994 167.167 102.587 165.807 103.181 164.411C103.809 163.051 104.473 161.69 105.276 160.365C106.079 159.074 106.812 157.713 107.964 156.632Z" fill="#DB9574"/>
  </g>
  <mask id="mask0_48_852" style="mask-type:luminance" maskUnits="userSpaceOnUse" x="90" y="171" width="18" height="15">
    <path d="M93.4057 171.039L90.9619 180.528L92.8821 181.156L94.0342 178.888L95.9194 182.098L107.231 185.726C107.231 185.726 108.732 182.447 107.231 180.319C105.73 178.191 99.5851 177.005 100.912 171.981L98.1537 171.597L96.7224 172.016L93.4406 171.074L93.4057 171.039Z" fill="white"/>
  </mask>
  <g mask="url(#mask0_48_852)">
    <path d="M93.4057 171.039L90.9619 180.528L92.8821 181.156L94.0342 178.888L95.9194 182.098L107.231 185.726C107.231 185.726 108.732 182.447 107.231 180.319C105.73 178.191 99.5851 177.005 100.912 171.981L98.1537 171.597L96.7224 172.016L93.4406 171.074L93.4057 171.039Z" fill="url(#paint0_linear_48_852)"/>
    <g style="mix-blend-mode:screen">
      <path opacity="0.09" d="M97.5594 161.725L97.6641 169.016L97.7689 176.307C97.7689 176.656 97.9434 177.005 98.1878 177.249C98.1878 177.249 99.2352 178.121 99.2701 178.156L104.367 182.237L109.255 186.144L110.582 187.156C111.454 187.784 112.711 187.086 112.537 185.97C112.292 184.191 111.943 181.819 111.594 179.272C111.245 176.935 110.896 174.423 110.547 172.156C109.813 167.376 109.185 163.469 108.976 163.469C108.766 163.469 106.881 162.841 104.926 162.179C102.971 161.516 100.597 160.993 99.0955 160.469C98.3275 160.19 97.4896 160.888 97.5245 161.725H97.5594Z" fill="#020707"/>
      <path opacity="0.18" d="M98.083 162.597V169.4L98.1179 176.202C98.1179 176.551 98.2576 176.865 98.502 177.109C98.502 177.179 99.4795 177.946 99.5144 177.981L104.437 181.923L109.15 185.691C109.15 185.691 110.407 186.633 110.477 186.633C111.315 187.191 112.502 186.493 112.327 185.412C112.083 183.702 111.768 181.4 111.419 178.958C111.105 176.691 110.756 174.318 110.407 172.121C109.709 167.551 109.08 163.818 108.906 163.853C108.696 163.853 106.671 163.19 104.891 162.597C103.11 162.004 100.876 161.865 99.5493 161.376C98.8511 161.132 98.083 161.899 98.083 162.632V162.597Z" fill="#030F0E"/>
      <path opacity="0.27" d="M98.6074 163.434L98.5376 169.714L98.4678 175.993C98.4678 176.342 98.5725 176.656 98.782 176.865C98.782 176.935 99.6548 177.667 99.7246 177.737L104.438 181.505L108.976 185.133C108.976 185.133 110.163 186.005 110.268 186.005C111.071 186.493 112.188 185.795 112.048 184.784C111.804 183.109 111.525 180.946 111.176 178.609C110.861 176.446 110.512 174.144 110.198 172.051C109.535 167.69 108.941 164.132 108.767 164.167C108.557 164.167 106.393 163.434 104.822 162.911C103.251 162.388 101.121 162.597 99.9341 162.179C99.3057 161.969 98.5725 162.772 98.5725 163.434H98.6074Z" fill="#051615"/>
      <path opacity="0.36" d="M99.1313 164.272L98.9568 170.062L98.7822 175.853C98.7822 176.167 98.852 176.481 99.0615 176.725C99.0615 176.83 99.8645 177.493 99.9343 177.563L104.473 181.191L108.837 184.679C108.837 184.679 109.954 185.481 110.094 185.481C110.897 185.9 111.909 185.202 111.769 184.226C111.56 182.621 111.246 180.528 110.932 178.33C110.617 176.237 110.303 174.074 110.024 172.051C109.395 167.9 108.837 164.551 108.662 164.551C108.453 164.551 106.149 163.783 104.787 163.33C103.425 162.876 101.401 163.469 100.353 163.086C99.8296 162.911 99.0964 163.748 99.0964 164.341L99.1313 164.272Z" fill="#061E1C"/>
      <path opacity="0.45" d="M99.6548 165.144L99.4104 170.411L99.166 175.679C99.166 175.993 99.2358 176.272 99.4104 176.516C99.4104 176.656 100.109 177.284 100.248 177.353L104.577 180.842L108.802 184.226C108.802 184.226 109.884 184.958 110.024 184.923C110.792 185.272 111.734 184.609 111.595 183.633C111.385 182.098 111.106 180.109 110.792 177.981C110.512 175.993 110.198 173.9 109.919 171.981C109.325 168.039 108.802 164.865 108.627 164.865C108.383 164.865 105.974 164.028 104.787 163.644C103.6 163.26 101.715 164.202 100.842 163.888C100.388 163.714 99.6897 164.655 99.7246 165.144H99.6548Z" fill="#082523"/>
      <path opacity="0.55" d="M100.178 165.981L99.8291 170.725L99.4799 175.47C99.445 175.749 99.4799 176.063 99.6545 176.272C99.6545 176.446 100.283 177.005 100.423 177.109L104.577 180.423L108.627 183.667C108.801 183.807 109.639 184.33 109.814 184.295C110.547 184.54 111.42 183.912 111.28 183.005C111.071 181.54 110.791 179.621 110.512 177.632C110.233 175.749 109.953 173.76 109.674 171.911C109.116 168.179 108.592 165.179 108.452 165.179C108.208 165.179 105.659 164.307 104.682 163.958C103.704 163.609 101.924 164.934 101.191 164.69C100.807 164.551 100.143 165.527 100.178 165.946V165.981Z" fill="#092D2B"/>
      <path opacity="0.64" d="M100.703 166.818L100.249 171.074L99.7948 175.33C99.7599 175.609 99.7948 175.888 99.9345 176.098C99.9345 176.272 100.493 176.795 100.633 176.9L104.613 180.074L108.488 183.179C108.697 183.354 109.43 183.772 109.675 183.737C110.373 183.912 111.176 183.284 111.071 182.412C110.862 180.981 110.617 179.202 110.338 177.284C110.094 175.47 109.815 173.586 109.535 171.877C109.012 168.353 108.523 165.528 108.383 165.562C108.139 165.562 105.451 164.621 104.648 164.376C103.845 164.132 102.204 165.807 101.61 165.597C101.296 165.493 100.703 166.504 100.703 166.853V166.818Z" fill="#0B3432"/>
      <path opacity="0.73" d="M101.226 167.69L100.702 171.423L100.178 175.156C100.109 175.435 100.178 175.679 100.248 175.888C100.318 176.098 100.702 176.551 100.877 176.691L104.647 179.726L108.348 182.691C108.592 182.865 109.255 183.214 109.5 183.179C110.198 183.284 110.896 182.656 110.792 181.819C110.617 180.458 110.373 178.749 110.093 176.97C109.849 175.26 109.57 173.446 109.325 171.842C108.836 168.528 108.383 165.876 108.243 165.911C107.964 165.911 105.171 164.934 104.577 164.725C103.984 164.516 102.448 166.574 101.994 166.435C101.749 166.365 101.191 167.446 101.191 167.69H101.226Z" fill="#0C3C39"/>
      <path opacity="0.82" d="M101.749 168.528L101.12 171.737L100.492 174.946C100.422 175.191 100.492 175.435 100.527 175.679C100.562 175.923 100.911 176.307 101.12 176.481L104.716 179.342L108.277 182.167C108.556 182.377 109.115 182.516 109.394 182.586C110.058 182.691 110.686 182.028 110.581 181.226C110.407 179.935 110.162 178.33 109.918 176.656C109.674 175.016 109.429 173.342 109.185 171.807C108.696 168.702 108.312 166.26 108.172 166.26C107.893 166.26 104.961 165.214 104.542 165.109C104.123 165.004 102.726 167.411 102.447 167.307C102.307 167.237 101.749 168.388 101.749 168.562V168.528Z" fill="#0E4340"/>
      <path opacity="0.91" d="M102.273 169.365L101.539 172.086L100.806 174.807C100.736 175.051 100.736 175.295 100.806 175.505C100.876 175.784 101.086 176.098 101.33 176.272L104.716 178.993L108.103 181.679C108.417 181.923 108.871 182.063 109.185 182.028C109.814 181.923 110.372 181.4 110.267 180.633C110.093 179.377 109.883 177.877 109.639 176.307C109.429 174.772 109.185 173.167 108.976 171.737C108.522 168.842 108.138 166.574 108.033 166.574C107.754 166.574 104.681 165.493 104.472 165.423C104.263 165.353 102.971 168.144 102.831 168.109C102.761 168.109 102.238 169.26 102.273 169.365Z" fill="#0F4B47"/>
      <path d="M104.438 165.807L102.797 170.202L101.156 174.598C100.947 175.121 101.156 175.679 101.54 176.028L104.752 178.609L107.964 181.191C108.872 181.923 110.198 181.191 110.024 180.04C109.849 178.888 109.64 177.458 109.43 175.993C109.221 174.528 109.011 173.063 108.802 171.702C108.383 169.016 108.034 166.923 107.929 166.923C107.65 166.923 104.438 165.807 104.438 165.807Z" fill="#11524E"/>
    </g>
  </g>
  <g style="mix-blend-mode:multiply">
    <path d="M90.9619 180.528L92.8821 181.156L94.0342 178.888L95.9194 182.098L107.231 185.726" stroke="#3E65A8" stroke-width="0.57" stroke-miterlimit="10"/>
  </g>
  <path d="M38.0706 141.98C37.7913 141.806 22.8491 151.783 22.8491 151.783L18.0312 146.306C18.0312 146.306 31.6818 133.015 31.193 133.189C30.7042 133.364 38.0706 141.945 38.0706 141.945V141.98Z" fill="#EEABA2"/>
  <mask id="mask1_48_852" style="mask-type:luminance" maskUnits="userSpaceOnUse" x="10" y="146" width="15" height="21">
    <path d="M18.0329 146.306L10.876 152.969L12.1677 154.539L14.3322 153.248L14.1926 156.981L21.7685 166.121C21.7685 166.121 24.8058 164.132 24.6661 161.551C24.5265 158.969 19.988 154.644 23.8283 151.12L21.6986 149.306L20.2673 148.888L17.998 146.306H18.0329Z" fill="white"/>
  </mask>
  <g mask="url(#mask1_48_852)">
    <path d="M18.0329 146.306L10.876 152.969L12.1677 154.539L14.3322 153.248L14.1926 156.981L21.7685 166.121C21.7685 166.121 24.8058 164.132 24.6661 161.551C24.5265 158.969 19.988 154.644 23.8283 151.12L21.6986 149.306L20.2673 148.888L17.998 146.306H18.0329Z" fill="url(#paint1_linear_48_852)"/>
    <g style="mix-blend-mode:screen">
      <path opacity="0.09" d="M17.8936 141.178C17.8936 141.178 14.4373 150.806 19.2551 160.051C24.073 169.295 26.3422 171.283 26.3422 171.283L39.12 141.736L17.8587 141.213L17.8936 141.178Z" fill="#020707"/>
      <path opacity="0.18" d="M18.3117 141.806C18.3117 141.806 14.9951 151.05 19.6383 159.876C24.2816 168.702 26.4461 170.655 26.4461 170.655L38.7002 142.329L18.3117 141.806Z" fill="#030F0E"/>
      <path opacity="0.27" d="M18.7311 142.434C18.7311 142.434 15.5541 151.26 19.9879 159.737C24.4217 168.214 26.4815 170.028 26.4815 170.028L38.2118 142.922L18.6961 142.434H18.7311Z" fill="#051615"/>
      <path opacity="0.36" d="M19.1501 143.062C19.1501 143.062 16.1128 151.504 20.3721 159.597C24.6313 167.69 26.5864 169.435 26.5864 169.435L37.7931 143.55L19.1501 143.097V143.062Z" fill="#061E1C"/>
      <path opacity="0.45" d="M19.5692 143.69C19.5692 143.69 16.7065 151.748 20.7213 159.423C24.7362 167.097 26.6563 168.807 26.6563 168.807L37.3393 144.143L19.6041 143.69H19.5692Z" fill="#082523"/>
      <path opacity="0.55" d="M19.9876 144.318C19.9876 144.318 17.2645 151.957 21.0699 159.283C24.8753 166.609 26.6907 168.179 26.6907 168.179L36.85 144.736L19.9876 144.318Z" fill="#092D2B"/>
      <path opacity="0.64" d="M20.4077 144.946C20.4077 144.946 17.8242 152.202 21.4551 159.144C25.0859 166.086 26.7966 167.586 26.7966 167.586L36.4322 145.364L20.4426 144.98L20.4077 144.946Z" fill="#0B3432"/>
      <path opacity="0.73" d="M20.8261 145.608C20.8261 145.608 18.3823 152.446 21.8036 159.004C25.225 165.562 26.8658 166.993 26.8658 166.993L35.9429 145.992L20.8261 145.608Z" fill="#0C3C39"/>
      <path opacity="0.82" d="M21.2103 146.236C21.2103 146.236 18.9061 152.69 22.118 158.865C25.3299 165.039 26.866 166.4 26.866 166.4L35.4194 146.62L21.1754 146.271L21.2103 146.236Z" fill="#0E4340"/>
      <path opacity="0.91" d="M21.6294 146.864C21.6294 146.864 19.4649 152.934 22.5022 158.725C25.5395 164.516 26.9709 165.772 26.9709 165.772L35.0006 147.213L21.6294 146.864Z" fill="#0F4B47"/>
      <path d="M22.0478 147.492C22.0478 147.492 20.0229 153.144 22.8508 158.551C25.6786 163.958 27.0053 165.144 27.0053 165.144L34.5113 147.806L22.0129 147.492H22.0478Z" fill="#11524E"/>
    </g>
  </g>
  <g style="mix-blend-mode:multiply">
    <path d="M10.875 153.004L12.1667 154.539L14.3313 153.248L14.1916 156.981L21.7675 166.121" stroke="#3E65A8" stroke-width="0.57" stroke-miterlimit="10"/>
  </g>
  <path d="M89.6703 40.6755L90.4035 52.0827C90.4035 52.0827 94.4882 58.5364 88.5881 59.9667C83.3513 60.8737 79.8252 52.0827 79.8252 52.0827C79.8252 52.0827 83.072 49.7455 83.072 46.1524C83.072 42.5592 80.5933 38.2684 80.5933 38.2684L89.6703 40.6755Z" fill="#E07E71"/>
  <mask id="mask2_48_852" style="mask-type:luminance" maskUnits="userSpaceOnUse" x="0" y="85" width="122" height="86">
    <path d="M109.117 99.3515C89.9509 77.2346 62.3007 84.9441 39.3986 99.2468C19.8131 111.456 10.8407 123.143 8.64129 126.317C2.60155 133.608 0.786133 138.771 0.786133 138.771C0.786133 138.771 4.8359 141.597 10.2123 142.294C13.3544 142.713 15.9379 144.632 17.2296 147.213C19.464 151.748 23.1995 155.411 30.6706 158.272C36.8849 160.644 48.0916 161.621 55.8421 160.225C58.3208 159.772 60.8694 160.225 62.999 161.446C67.9215 164.341 72.9139 166.749 78.4998 167.725C84.8887 168.807 90.0556 169.016 95.1528 167.69C97.5268 167.063 100.11 167.028 102.24 168.144C109.222 171.632 114.11 170.063 114.11 170.063C114.11 170.063 118.683 163.609 118.998 156.004C118.998 156.004 128.773 122.166 109.117 99.4561V99.3515Z" fill="white"/>
  </mask>
  <g mask="url(#mask2_48_852)">
    <mask id="mask3_48_852" style="mask-type:luminance" maskUnits="userSpaceOnUse" x="8" y="85" width="114" height="74">
      <path d="M8.04883 127.155C8.04883 127.155 16.4626 113.55 39.3996 99.212C62.3367 84.9093 89.9869 77.1998 109.119 99.3167C128.809 122.027 118.999 155.865 118.999 155.865C118.999 155.865 114.809 157.016 103.463 156.388C97.8071 156.074 90.7549 159.807 83.1791 158.516C76.6855 157.4 72.5659 151.469 64.4663 150.283C55.494 148.957 45.7187 152.376 38.9807 149.795C29.6942 146.236 26.5521 133.887 21.4899 130.294C15.2756 125.864 8.04883 127.12 8.04883 127.12V127.155Z" fill="white"/>
    </mask>
    <g mask="url(#mask3_48_852)">
      <path d="M8.04883 127.154C8.04883 127.154 16.4626 113.549 39.3996 99.2119C62.3367 84.9092 89.9869 77.1997 109.119 99.3166C128.809 122.026 121.338 157.26 121.338 157.26C121.338 157.26 114.425 156.109 103.079 155.481C97.4231 155.167 90.7549 159.841 83.179 158.551C76.6854 157.434 72.5659 151.504 64.4663 150.318C55.494 148.992 45.7187 152.411 38.9807 149.829C29.6941 146.271 26.5521 133.922 21.4899 130.329C15.2756 125.899 8.04883 127.154 8.04883 127.154Z" fill="url(#paint2_linear_48_852)"/>
      <path style="mix-blend-mode:multiply" d="M122.734 248.483C166.329 248.483 201.67 209.109 201.67 160.539C201.67 111.969 166.329 72.595 122.734 72.595C79.1395 72.595 43.7988 111.969 43.7988 160.539C43.7988 209.109 79.1395 248.483 122.734 248.483Z" fill="url(#paint3_radial_48_852)"/>
      <g style="mix-blend-mode:screen">
        <path opacity="0.09" d="M73.8232 92.6536C73.8232 92.6536 77.3493 103.607 85.9726 121.852C94.5958 140.097 127.622 152.76 127.622 152.76L124.48 93.3164L76.8257 82.1533L73.8232 92.6536Z" fill="#070406"/>
        <path opacity="0.18" d="M75.3242 92.9676C75.3242 92.9676 79.4787 102.352 88.1019 120.631C96.7252 138.911 127.552 151.713 127.552 151.713L123.991 93.6653L77.384 82.6417L75.3242 92.9676Z" fill="#0F080B"/>
        <path opacity="0.27" d="M76.8604 93.2466C76.8604 93.2466 81.6433 101.096 90.3014 119.34C98.9595 137.585 127.552 150.597 127.552 150.597L123.537 93.9792L77.9775 83.0952L76.8604 93.2466Z" fill="#160B11"/>
        <path opacity="0.36" d="M78.3623 93.5605C78.3623 93.5605 83.7736 99.8397 92.4318 118.119C101.09 136.399 127.483 149.515 127.483 149.515L123.049 94.328L78.5718 83.5835L78.3972 93.5605H78.3623Z" fill="#1E0F17"/>
        <path opacity="0.45" d="M79.8982 93.8396C79.8982 93.8396 85.9728 98.5839 94.5961 116.829C103.219 135.073 127.448 148.399 127.448 148.399L122.595 94.6419L79.165 84.037L79.9331 93.8396H79.8982Z" fill="#25131C"/>
        <path opacity="0.55" d="M81.3992 94.1536C81.3992 94.1536 88.1022 97.3281 96.7254 115.608C105.349 133.887 127.378 147.353 127.378 147.353L122.071 94.9909L79.6885 84.4906L81.3992 94.1188V94.1536Z" fill="#2D1722"/>
        <path opacity="0.64" d="M82.9348 94.4327C82.9348 94.4327 90.2663 96.0723 98.9244 114.317C107.583 132.562 127.378 146.236 127.378 146.236L121.652 95.3048L80.3164 84.9441L82.9697 94.3978L82.9348 94.4327Z" fill="#341B27"/>
        <path opacity="0.73" d="M84.437 94.7466C84.437 94.7466 92.3969 94.8163 101.055 113.061C109.713 131.306 127.309 145.155 127.309 145.155L121.129 95.6536L80.876 85.4324L84.437 94.7117V94.7466Z" fill="#3C1F2D"/>
        <path opacity="0.82" d="M85.9372 95.0258C85.9372 95.0258 94.5604 93.5606 103.184 111.805C111.807 130.05 127.238 144.074 127.238 144.074L120.64 96.0026L81.4336 85.9209L85.9372 95.0258Z" fill="#432233"/>
        <path opacity="0.91" d="M87.4736 95.3398C87.4736 95.3398 96.7252 92.3048 105.383 110.549C114.041 128.794 127.238 142.992 127.238 142.992L120.186 96.3514L82.0273 86.4093L87.4736 95.3398Z" fill="#4B2638"/>
        <path d="M88.975 95.6187C88.975 95.6187 98.8551 91.0139 107.513 109.293C116.171 127.573 127.169 141.911 127.169 141.911L119.697 96.6652L82.6211 86.8627L89.01 95.6187H88.975Z" fill="#522A3E"/>
      </g>
      <g style="mix-blend-mode:multiply">
        <path d="M56.2275 96.3165C58.0779 94.2583 60.4519 92.6885 63.0004 91.4675C64.2922 90.9443 65.6188 90.4559 67.0153 90.2117C68.4118 89.9675 69.8431 90.0024 71.2047 90.2117C68.4467 90.3861 65.8283 91.0838 63.3845 92.235C62.1276 92.7583 60.9406 93.4211 59.7536 94.0839C58.5666 94.7816 57.4145 95.4793 56.2624 96.2467L56.2275 96.3165Z" fill="#F6B8E1"/>
      </g>
      <g style="mix-blend-mode:multiply">
        <path d="M79.8981 93.8047C77.6638 97.7118 75.988 101.723 74.2773 105.875C74.417 104.758 74.5916 103.642 74.9058 102.561C75.1851 101.479 75.6389 100.433 76.0578 99.3862C77.0354 97.3629 78.1875 95.3396 79.8632 93.8047H79.8981Z" fill="#F6B8E1"/>
      </g>
      <g style="mix-blend-mode:multiply">
        <path d="M91.0342 95.6188C92.2561 95.7932 93.3384 96.4211 94.3508 97.1188C95.2934 97.8863 96.2011 98.7584 96.655 99.9096C95.6076 99.2468 94.7697 98.4793 93.7922 97.8165C92.8845 97.0839 91.9419 96.456 91.0342 95.6188Z" fill="#F6B8E1"/>
      </g>
      <g style="mix-blend-mode:multiply">
        <path d="M103.463 101.026C102.764 100.293 101.996 99.7002 101.263 99.0723C100.495 98.4793 99.727 97.9211 98.8891 97.3978C97.2832 96.3164 95.5376 95.4443 93.792 94.4675C94.7695 94.642 95.7471 94.921 96.6897 95.3048C97.6323 95.6885 98.5051 96.1769 99.3779 96.6653C101.019 97.8164 102.66 99.1769 103.497 101.026H103.463Z" fill="#F6B8E1"/>
      </g>
      <g style="mix-blend-mode:multiply">
        <path d="M71.7631 91.7815C69.2495 92.7583 67.3293 94.2234 65.1299 95.8281C65.4441 95.2351 65.8281 94.642 66.282 94.1536C66.7358 93.6304 67.2944 93.2118 67.853 92.828C69.04 92.1303 70.4016 91.5722 71.798 91.7815H71.7631Z" fill="#F6B8E1"/>
      </g>
    </g>
    <mask id="mask4_48_852" style="mask-type:luminance" maskUnits="userSpaceOnUse" x="0" y="126" width="119" height="45">
      <path d="M105.278 154.051C99.6225 154.539 90.7549 159.841 83.179 158.551C76.7203 157.434 72.5658 151.504 64.4663 150.318C55.4939 148.992 45.7186 152.411 38.9806 149.83C29.6941 146.271 26.552 133.922 21.4898 130.329C15.2755 125.899 8.04877 127.155 8.04877 127.155C8.04877 127.155 8.25824 126.841 8.64227 126.282C2.60252 133.573 0.787109 138.736 0.787109 138.736C0.787109 138.736 4.83688 141.562 10.2133 142.26C13.3554 142.678 15.9388 144.597 17.2306 147.178C19.4649 151.713 23.2005 155.376 30.6716 158.237C36.8859 160.609 48.0926 161.586 55.843 160.19C58.3218 159.737 60.8703 160.19 63 161.411C67.9225 164.307 72.9149 166.714 78.5008 167.691C84.8897 168.772 90.0566 168.981 95.1537 167.656C97.5277 167.028 100.111 166.993 102.241 168.109C109.223 171.598 114.111 170.028 114.111 170.028C114.111 170.028 118.684 163.574 118.999 155.969C118.789 155.934 116.729 153.109 105.278 154.12V154.051Z" fill="white"/>
    </mask>
    <g mask="url(#mask4_48_852)">
      <path d="M105.278 154.051C99.6225 154.539 90.7549 159.841 83.179 158.551C76.7203 157.434 72.5658 151.504 64.4663 150.318C55.4939 148.992 45.7186 152.411 38.9806 149.83C29.6941 146.271 26.552 133.922 21.4898 130.329C15.2755 125.899 8.04877 127.155 8.04877 127.155C8.04877 127.155 8.25824 126.841 8.64227 126.282C2.60252 133.573 0.787109 138.736 0.787109 138.736C0.787109 138.736 4.83688 141.562 10.2133 142.26C13.3554 142.678 15.9388 144.597 17.2306 147.178C19.4649 151.713 23.2005 155.376 30.6716 158.237C36.8859 160.609 48.0926 161.586 55.843 160.19C58.3218 159.737 60.8703 160.19 63 161.411C67.9225 164.307 72.9149 166.714 78.5008 167.691C84.8897 168.772 90.0566 168.981 95.1537 167.656C97.5277 167.028 100.111 166.993 102.241 168.109C109.223 171.598 119.941 170.028 119.941 170.028C119.941 170.028 121.023 164.969 121.338 157.33C121.128 157.295 116.764 153.074 105.313 154.085L105.278 154.051Z" fill="#EB67AA"/>
      <path style="mix-blend-mode:multiply" d="M122.735 248.483C176.645 248.483 220.348 209.109 220.348 160.539C220.348 111.969 176.645 72.5951 122.735 72.5951C68.8241 72.5951 25.1211 111.969 25.1211 160.539C25.1211 209.109 68.8241 248.483 122.735 248.483Z" fill="url(#paint4_radial_48_852)"/>
    </g>
    <g style="mix-blend-mode:multiply">
      <path d="M90.9631 132.736C91.9406 138.597 91.8359 144.597 90.7885 150.492C89.5666 156.318 88.24 162.039 86.6689 167.725C86.9832 164.795 87.3323 161.865 87.7861 158.934L89.1128 150.213C89.8808 144.457 90.2649 138.632 90.9631 132.736Z" fill="#F6B8E1"/>
    </g>
    <path d="M103.148 166.574C100.774 165.388 97.7365 165.179 94.5944 165.981C90.2305 167.132 85.5174 167.132 78.8143 165.981C73.0888 165.004 68.0964 162.388 63.9768 159.981C61.4282 158.481 58.3909 157.958 55.3885 158.516C48.2316 159.841 37.4438 159.004 31.3342 156.667C24.9803 154.225 21.14 151.085 18.8707 146.481C17.2648 143.271 14.1227 141.039 10.3872 140.585C6.23265 140.062 2.74147 137.794 1.48464 136.992C0.926051 136.992 0.681669 137.341 0.542021 137.585C0.157991 138.283 0.71658 138.736 0.71658 138.736C0.71658 138.736 4.76635 141.562 10.1428 142.26C13.2848 142.678 15.8683 144.597 17.16 147.178C19.3944 151.713 23.13 155.376 30.6011 158.237C36.8154 160.609 48.0221 161.586 55.7725 160.19C58.2513 159.737 60.7998 160.19 62.9294 161.411C67.852 164.307 72.8444 166.714 78.4303 167.691C84.8191 168.772 89.9861 168.981 95.0832 167.656C97.4572 167.028 100.041 166.993 102.17 168.109C109.153 171.598 114.04 170.028 114.04 170.028C114.04 170.028 114.704 169.888 114.983 169.435C115.088 169.26 115.158 168.981 114.878 168.702C111.387 168.772 106.639 168.458 103.078 166.644L103.148 166.574Z" fill="white"/>
    <g style="mix-blend-mode:multiply">
      <path d="M65.4089 112.573C58.2869 118.503 53.9928 126.701 50.3968 135.073C48.4767 139.225 46.8358 143.55 44.3222 147.562C41.4943 151.364 38.4919 154.678 35.3848 158.167C36.6067 156.213 37.9682 154.365 39.2251 152.446C40.5168 150.562 42.018 148.678 43.1003 146.829C45.2997 142.922 46.8708 138.597 48.7211 134.376C50.6412 130.189 52.701 125.968 55.3892 122.201C58.0774 118.398 61.3592 114.945 65.374 112.608L65.4089 112.573Z" fill="#F6B8E1"/>
    </g>
    <g style="mix-blend-mode:multiply">
      <path d="M111.737 147.736C111.911 151.085 111.422 154.33 110.654 157.539C110.235 159.144 109.747 160.714 109.013 162.248C108.315 163.748 107.512 165.249 106.325 166.469C107.407 163.33 108.106 160.26 108.909 157.12C109.747 154.016 110.515 150.841 111.737 147.736Z" fill="#F6B8E1"/>
    </g>
  </g>
  <g style="mix-blend-mode:multiply">
    <path d="M69.9813 86.3744C57.9368 89.5838 47.0443 95.5839 36.8151 102.421C31.7529 105.91 26.7954 109.573 22.1173 113.584C17.5438 117.666 13.0402 121.922 9.30462 126.736V126.806C6.05782 130.469 2.98558 134.306 0.786133 138.736C1.51928 136.364 2.63646 134.131 3.85837 131.969C5.08029 129.806 6.47676 127.748 8.01288 125.794H7.97797C11.4691 120.561 15.7982 115.922 20.4415 111.735C25.0848 107.514 30.0771 103.642 35.3488 100.293C40.6205 96.9095 46.0668 93.7699 51.897 91.3629C57.6575 88.921 63.7321 87.0721 69.9464 86.3744H69.9813Z" fill="#DB74B9"/>
  </g>
  <g style="mix-blend-mode:multiply">
    <path d="M93.127 89.0953C96.9323 90.0023 100.598 91.5721 103.845 93.9094C107.022 96.2467 109.885 99.0375 112.328 102.177C117.146 108.561 119.625 116.375 120.917 124.154C122.069 131.969 122.069 139.922 121.126 147.736C120.603 151.643 119.904 155.516 118.892 159.318C117.74 163.051 116.553 166.923 114.109 169.993C116.308 166.783 117.181 162.841 118.019 159.109C118.857 155.306 119.381 151.469 119.73 147.597C120.393 139.887 120.358 132.073 119.136 124.433C118.019 116.829 115.61 109.294 111.246 102.979C106.743 96.8397 100.703 91.3628 93.127 89.1302V89.0953Z" fill="#DB74B9"/>
  </g>
  <mask id="mask5_48_852" style="mask-type:luminance" maskUnits="userSpaceOnUse" x="67" y="52" width="34" height="49">
    <path d="M83.8043 100.258C90.5772 100.677 95.3252 97.4328 99.7241 96.0374L100.492 54.4549L90.4026 52.0828C90.4026 52.0828 90.4026 52.606 90.5074 52.9549C91.031 54.6991 92.3926 59.6527 88.8665 60.1062C84.6073 60.6644 79.8244 52.1176 79.8244 52.1176C79.8244 52.1176 74.6225 55.955 71.9343 58.2225C70.1538 61.397 71.5852 75.4903 67.1514 90.5605C70.6076 95.3048 74.9018 99.7351 83.8043 100.293V100.258Z" fill="white"/>
  </mask>
  <g mask="url(#mask5_48_852)">
    <path d="M83.4561 102.526C90.229 102.945 95.7102 102.003 100.109 100.607L100.458 54.4549L90.3687 52.0828C90.3687 52.0828 90.4036 52.5014 90.4734 52.9549C90.7876 54.7689 91.2764 59.3039 88.3787 59.8969C84.1195 60.4551 79.7904 52.0828 79.7904 52.0828C79.7904 52.0828 74.5536 53.7921 69.9802 56.5131C68.1997 59.6876 69.9453 77.723 65.4766 92.7931C68.9328 97.5374 74.5187 101.968 83.4212 102.526H83.4561Z" fill="#EB67AA"/>
    <g style="mix-blend-mode:multiply">
      <path d="M89.0768 61.9202C94.3834 60.5946 93.0917 54.8735 92.2887 52.5013L90.4035 52.0478C90.4035 52.0478 90.4733 52.4316 90.5431 52.9199C90.8573 54.7339 91.3112 59.2689 88.4135 59.8271C84.1542 60.3852 79.8252 52.0129 79.8252 52.0129C79.8252 52.0129 78.4636 52.5013 77.7305 52.7804C78.4985 54.0362 82.269 63.5597 89.1117 61.8504L89.0768 61.9202Z" fill="#DB74B9"/>
    </g>
    <path style="mix-blend-mode:multiply" d="M129.47 166.121C159.086 166.121 183.095 131.807 183.095 89.479C183.095 47.1511 159.086 12.8375 129.47 12.8375C99.8542 12.8375 75.8457 47.1511 75.8457 89.479C75.8457 131.807 99.8542 166.121 129.47 166.121Z" fill="url(#paint5_radial_48_852)"/>
    <g style="mix-blend-mode:multiply">
      <path d="M79.8256 52.0828C78.7783 53.4781 77.4865 54.4898 76.2297 55.5712C74.8681 56.548 73.5764 57.5248 71.9355 58.1876C72.948 56.8271 74.2397 55.7805 75.5315 54.6991C76.893 53.7223 78.2197 52.7107 79.8256 52.0828Z" fill="#DB74B9"/>
    </g>
  </g>
  <mask id="mask6_48_852" style="mask-type:luminance" maskUnits="userSpaceOnUse" x="60" y="12" width="45" height="40">
    <path d="M93.4047 15.1747C93.4047 15.1747 102.517 24.5238 104.158 36.5939C105.03 42.8731 100.352 47.757 95.4645 49.9547C91.5544 51.6989 88.2377 51.4896 82.1631 50.6873C68.5126 48.8733 65.1959 41.6522 61.6349 34.0124C56.049 22.1517 83.0708 5.02332 93.4047 15.1747Z" fill="white"/>
  </mask>
  <g mask="url(#mask6_48_852)">
    <path d="M93.4047 15.1747C93.4047 15.1747 102.517 24.5238 104.158 36.5939C105.729 47.8616 95.8136 52.5013 82.1631 50.6873C68.5126 48.8733 65.1959 41.6522 61.6349 34.0124C56.049 22.1517 83.0708 5.02332 93.4047 15.1747Z" fill="#EEABA2"/>
    <g style="mix-blend-mode:screen">
      <path opacity="0.09" d="M78.2871 11.5118C78.2871 11.5118 93.0199 25.8145 96.93 39.2102C100.84 52.6059 101.957 54.978 101.957 54.978L113.618 38.5823L95.9874 2.33716L78.2871 11.5467V11.5118Z" fill="#0C0302"/>
      <path opacity="0.18" d="M79.2646 11.7909C79.2646 11.7909 93.5785 25.675 97.3839 38.687C101.154 51.6989 102.272 54.0013 102.272 54.0013L113.583 38.059L96.4762 2.86047L79.2996 11.7909H79.2646Z" fill="#180605"/>
      <path opacity="0.27" d="M80.208 12.0351C80.208 12.0351 94.1029 25.5006 97.7687 38.1288C101.434 50.7571 102.517 52.9897 102.517 52.9897L113.514 37.5358L96.8959 3.34888L80.208 12.0351Z" fill="#240907"/>
      <path opacity="0.36" d="M81.1846 12.3142C81.1846 12.3142 94.6605 25.3959 98.2215 37.6404C101.783 49.8849 102.795 52.0477 102.795 52.0477L113.443 37.0474L97.3487 3.90698L81.1846 12.3142Z" fill="#300C0A"/>
      <path opacity="0.45" d="M82.1628 12.5932C82.1628 12.5932 95.2199 25.2563 98.6761 37.1171C102.132 48.9779 103.11 51.0709 103.11 51.0709L113.409 36.5589L97.8033 4.46509L82.1279 12.6281L82.1628 12.5932Z" fill="#3C0F0C"/>
      <path opacity="0.55" d="M83.1045 12.8723C83.1045 12.8723 95.7426 25.1168 99.0941 36.5938C102.446 48.0709 103.388 50.0942 103.388 50.0942L113.373 36.0357L98.2562 4.95349L83.1045 12.8374V12.8723Z" fill="#49130F"/>
      <path opacity="0.64" d="M84.0828 13.1165C84.0828 13.1165 96.3019 24.9773 99.5138 36.0706C102.726 47.1639 103.668 49.1175 103.668 49.1175L113.304 35.5125L98.7108 5.47681L84.0479 13.1165H84.0828Z" fill="#551611"/>
      <path opacity="0.73" d="M85.0254 13.3956C85.0254 13.3956 96.8256 24.8377 99.9327 35.5473C103.04 46.2569 103.948 48.1406 103.948 48.1406L113.269 35.024L99.1647 6.03491L85.0254 13.3956Z" fill="#611914"/>
      <path opacity="0.82" d="M86.0029 13.6747C86.0029 13.6747 97.3842 24.6982 100.387 35.0241C103.389 45.3499 104.262 47.1639 104.262 47.1639L113.234 34.5008L99.6534 6.55823L86.0029 13.6747Z" fill="#6D1C16"/>
      <path opacity="0.91" d="M86.9453 13.9538C86.9453 13.9538 97.9076 24.5587 100.77 34.5008C103.633 44.443 104.506 46.1872 104.506 46.1872L113.164 34.0125L100.072 7.08154L86.9453 13.9189V13.9538Z" fill="#791F19"/>
      <path d="M87.9229 14.1979C87.9229 14.1979 98.4313 24.4191 101.224 33.9775C104.017 43.5359 104.82 45.2104 104.82 45.2104L113.129 33.4891L100.561 7.60474L87.9229 14.163V14.1979Z" fill="#85221B"/>
    </g>
    <path d="M88.5864 34.3614C87.5041 34.0823 86.6662 34.1869 86.0029 34.6404C85.3047 35.0242 84.8508 35.7219 84.6064 36.8382C84.2224 36.3847 84.1177 35.7568 84.2573 35.1288C84.3969 34.5009 84.8508 33.9776 85.3396 33.5939C85.8982 33.3148 86.5615 33.1404 87.1899 33.2799C87.8183 33.4195 88.342 33.8032 88.5515 34.3265L88.5864 34.3614Z" fill="#1C2430"/>
    <path d="M98.5015 29.0939C98.0477 28.9195 97.5938 28.8846 97.2098 28.9195C96.8258 28.9543 96.4767 29.0241 96.1974 29.2334C95.8832 29.373 95.6388 29.652 95.4293 29.966C95.2198 30.28 95.0453 30.6637 94.9755 31.1521C94.6612 30.7683 94.5216 30.1753 94.6962 29.652C94.8358 29.0939 95.2198 28.6404 95.7086 28.3264C96.2323 28.0822 96.8258 27.9427 97.3495 28.1171C97.908 28.2567 98.327 28.6404 98.5365 29.1288L98.5015 29.0939Z" fill="#1C2430"/>
    <g style="mix-blend-mode:multiply">
      <path d="M91.624 25.0821C92.0081 24.3147 92.811 23.8263 93.6838 23.6519C94.5566 23.5472 95.4643 23.7216 96.0927 24.3147C94.417 24.1751 93.1601 24.3147 91.6589 25.0473L91.624 25.0821Z" fill="#A95B19"/>
    </g>
    <g style="mix-blend-mode:multiply">
      <path d="M93.3691 32.5125C94.5212 32.9312 95.394 33.3847 96.3017 33.873L97.1745 34.3265L96.4414 34.8149C95.8479 35.2335 95.1846 35.5126 94.4165 35.6522C94.7656 34.9196 95.2195 34.3614 95.7781 33.9079L95.9177 34.8847C94.8005 34.4661 93.7881 33.6986 93.4041 32.4777L93.3691 32.5125Z" fill="#E3A39A"/>
    </g>
    <path d="M91.0303 38.5126C91.0303 38.5126 96.2321 36.8033 96.1274 36.8382C96.0227 36.8731 97.489 41.0243 94.9404 41.4429C92.3918 41.8616 91.0652 38.5126 91.0652 38.5126H91.0303Z" fill="#CC546F"/>
    <path style="mix-blend-mode:multiply" d="M84.3569 44.4097C87.8337 43.139 89.8253 39.8501 88.8054 37.0636C87.7854 34.2771 84.1401 33.0483 80.6634 34.3189C77.1866 35.5896 75.195 38.8785 76.2149 41.665C77.2349 44.4515 80.8802 45.6803 84.3569 44.4097Z" fill="url(#paint6_radial_48_852)"/>
    <path style="mix-blend-mode:multiply" d="M104.004 34.1361C107.209 32.9648 108.98 29.7563 107.96 26.9699C106.94 24.1834 103.515 22.8741 100.31 24.0454C97.1051 25.2168 95.3337 28.4253 96.3536 31.2117C97.3736 33.9982 100.799 35.3075 104.004 34.1361Z" fill="url(#paint7_radial_48_852)"/>
  </g>
  <g style="mix-blend-mode:multiply">
    <path d="M95.4658 17.5818C99.6901 22.361 102.867 28.1518 104.229 34.4659C105.032 37.5706 104.717 41.1986 102.867 43.9196C101.122 46.6755 98.3984 48.6988 95.4658 49.8849C98.2588 48.3849 100.738 46.222 102.309 43.5708C103.914 40.8498 104.194 37.7102 103.391 34.6403C102.762 31.5705 101.68 28.6053 100.319 25.7448C98.957 22.8842 97.3161 20.1632 95.5007 17.5469L95.4658 17.5818Z" fill="#C26250"/>
  </g>
  <path d="M67.0478 19.675C67.0478 19.675 54.9334 15.8377 53.0132 28.6752C51.0931 41.5128 64.2199 40.8151 67.0478 38.4429C69.8756 36.0708 67.0478 19.675 67.0478 19.675Z" fill="#C56412"/>
  <g style="mix-blend-mode:multiply">
    <path d="M64.1155 34.6753C62.5096 34.3613 60.9036 33.8381 59.5071 32.8962C58.0758 31.9892 56.8888 30.5938 56.2953 28.9193C55.8065 27.1751 55.9461 25.4309 56.4 23.8262C56.8538 22.2215 58.1805 20.5121 59.9261 20.547C58.3201 21.0354 57.5521 22.5703 57.3077 24.0355C57.0982 25.5355 56.9586 27.1751 57.4473 28.5356C58.355 31.431 61.2876 33.1753 64.1155 34.6753Z" fill="#D5AF8E"/>
  </g>
  <g style="mix-blend-mode:multiply">
    <path d="M55.5962 24.0355C54.4791 27.21 55.0027 30.8729 57.3767 33.1753C58.4939 34.3265 59.9253 35.3032 61.2869 36.2451C61.9851 36.6986 62.6833 37.1172 63.4514 37.4661C64.1845 37.8149 64.9875 38.1986 65.8254 38.0591C64.1147 38.408 62.4389 37.4661 60.9727 36.6986C59.5064 35.8265 58.1099 34.8846 56.8181 33.6636C55.6311 32.3729 54.7583 30.7682 54.5838 28.9891C54.3743 27.2449 54.7583 25.5006 55.5613 24.0006L55.5962 24.0355Z" fill="#D5AF8E"/>
  </g>
  <g style="mix-blend-mode:multiply">
    <path d="M63.1377 19.1168C60.0306 19.2912 56.9932 20.7215 55.4571 23.303C53.8861 25.8147 53.3624 28.9892 53.537 31.9544C53.5719 34.9196 55.3524 37.6754 58.2152 38.722C59.6116 39.2801 61.1128 39.5243 62.649 39.4894C64.1851 39.4894 65.7561 39.2452 67.0828 38.4778C64.5342 40.3616 60.9732 40.536 57.901 39.629C54.6542 38.722 52.4198 35.3382 52.35 32.0939C52.2452 28.8496 52.8038 25.5356 54.724 22.8495C55.6666 21.5239 57.0282 20.4773 58.4945 19.8494C59.9957 19.2564 61.6016 19.0471 63.1726 19.1866L63.1377 19.1168Z" fill="#D69157"/>
  </g>
  <path d="M75.1127 33.7334C75.1127 33.7334 73.5766 39.7336 74.9032 43.0127C75.2174 43.8151 75.3222 44.1639 75.4967 44.4779C75.9157 45.1756 77.1725 48.4896 80.0353 50.3385C78.2198 50.0943 76.0204 49.292 76.0204 49.292C76.0204 49.292 66.1753 48.1756 61.3574 35.0241C57.1331 23.5471 75.1825 33.7334 75.1825 33.7334H75.1127Z" fill="url(#paint8_linear_48_852)"/>
  <path d="M71.6906 37.7451C71.6906 37.7451 65.6159 38.4428 69.0373 42.8732C71.7255 46.3616 77.067 43.9197 77.067 43.9197L71.6906 37.7451Z" fill="#EEABA2"/>
  <g style="mix-blend-mode:multiply">
    <path d="M72.1795 39.7684C72.1795 39.7684 69.6309 40.0475 71.0623 41.9313C72.2144 43.3964 74.4488 42.3499 74.4488 42.3499L72.1795 39.7684Z" fill="#EEABA2"/>
  </g>
  <mask id="mask7_48_852" style="mask-type:luminance" maskUnits="userSpaceOnUse" x="60" y="8" width="39" height="32">
    <path d="M89.0085 19.1168C88.4848 18.768 90.6842 24.5588 83.4575 32.5125C75.7071 41.0244 64.0814 38.8964 64.0814 38.8964C64.0814 38.8964 54.5156 31.2218 65.7572 17.547C76.9988 3.90715 90.1955 9.34915 94.3151 13.6051C98.3997 17.861 98.9932 22.1867 98.9932 22.1867C98.9932 22.1867 96.2352 24.1053 89.0085 19.082V19.1168Z" fill="white"/>
  </mask>
  <g mask="url(#mask7_48_852)">
    <path d="M89.0085 19.1168C88.4848 18.768 90.6842 24.5588 83.4575 32.5125C75.7071 41.0244 64.0814 38.8964 64.0814 38.8964C64.0814 38.8964 54.5156 31.2218 65.7572 17.547C76.9988 3.90715 90.1955 9.34915 94.3151 13.6051C98.3997 17.861 98.9932 22.1867 98.9932 22.1867C98.9932 22.1867 96.2352 24.1053 89.0085 19.082V19.1168Z" fill="url(#paint9_linear_48_852)"/>
    <g style="mix-blend-mode:multiply">
      <path d="M85.5521 15.5585C85.9361 18.3144 85.8663 21.14 85.2728 23.8959C84.6444 26.6169 83.3876 29.3379 81.3278 31.3961C79.233 33.4194 76.6496 34.6752 74.0312 35.6869C71.4128 36.6288 68.55 37.2567 65.792 36.8381C68.55 36.7683 71.2033 35.9311 73.6821 34.8497C76.1259 33.6985 78.6395 32.4775 80.455 30.5589C82.3751 28.71 83.5621 26.2332 84.3302 23.6866C85.0982 21.1051 85.3775 18.3492 85.5172 15.5934L85.5521 15.5585Z" fill="#D5AF8E"/>
    </g>
    <g style="mix-blend-mode:multiply">
      <path d="M77.1384 23.9658C76.7194 26.2682 75.9164 28.5357 74.6247 30.5241C73.333 32.5474 71.343 34.0823 69.1436 34.8498L71.8318 32.6521C72.7046 31.9195 73.4028 31.0474 74.0661 30.1055C75.3579 28.2217 76.2656 26.0938 77.1384 23.9309V23.9658Z" fill="#D5AF8E"/>
    </g>
    <g style="mix-blend-mode:screen">
      <path opacity="0.09" d="M78.8492 4.91885C78.8492 4.91885 77.2782 5.23281 83.8416 13.0819C90.405 20.9309 113.517 26.931 113.517 26.931L100.774 -1.39526L78.8492 4.91885Z" fill="#0C0402"/>
      <path opacity="0.18" d="M79.4434 5.30259C79.4434 5.30259 78.6055 5.89563 84.8896 13.4307C91.1738 20.9658 112.575 26.652 112.575 26.652L100.495 -0.767334L79.4434 5.30259Z" fill="#180705"/>
      <path opacity="0.27" d="M80.0021 5.6862C80.0021 5.6862 79.8973 6.55832 85.9371 13.8143C91.9768 21.0703 111.632 26.3728 111.632 26.3728L100.181 -0.139526L80.0021 5.6862Z" fill="#240B07"/>
      <path opacity="0.36" d="M80.5957 6.06994C80.5957 6.06994 81.2241 7.25602 87.0195 14.1632C92.8148 21.0703 110.725 26.0937 110.725 26.0937L99.9368 0.488403L80.5957 6.06994Z" fill="#300E0A"/>
      <path opacity="0.45" d="M81.1882 6.45371C81.1882 6.45371 82.5498 7.91886 88.0659 14.5469C93.5819 21.175 109.781 25.8496 109.781 25.8496L99.6217 1.15125L81.1533 6.48859L81.1882 6.45371Z" fill="#3C120C"/>
      <path opacity="0.55" d="M81.7471 6.83754C81.7471 6.83754 83.8418 8.58177 89.1135 14.8959C94.3851 21.21 108.839 25.5357 108.839 25.5357L99.3426 1.74438L81.7471 6.80265V6.83754Z" fill="#49150F"/>
      <path opacity="0.64" d="M82.3416 7.22115C82.3416 7.22115 85.1694 9.24446 90.1967 15.2446C95.224 21.2448 107.932 25.2565 107.932 25.2565L99.0643 2.37219L82.3066 7.18627L82.3416 7.22115Z" fill="#551911"/>
      <path opacity="0.73" d="M82.9346 7.60492C82.9346 7.60492 86.5305 9.94219 91.2785 15.6284C96.0265 21.3146 107.024 25.0123 107.024 25.0123L98.8194 3.03503L82.9346 7.60492Z" fill="#611C14"/>
      <path opacity="0.82" d="M83.4922 7.98863C83.4922 7.98863 87.8212 10.605 92.29 15.9772C96.7587 21.3494 106.08 24.6984 106.08 24.6984L98.5043 3.62805L83.4922 7.95374V7.98863Z" fill="#6D2016"/>
      <path opacity="0.91" d="M84.0859 8.3723C84.0859 8.3723 89.1481 11.2677 93.3725 16.3609C97.5968 21.454 105.173 24.4541 105.173 24.4541L98.2601 4.32568L84.0859 8.40718V8.3723Z" fill="#792319"/>
      <path d="M84.6797 8.72122C84.6797 8.72122 90.475 11.8957 94.455 16.6749C98.4349 21.4541 104.265 24.1053 104.265 24.1053L97.9811 4.88391L84.6797 8.72122Z" fill="#85271B"/>
    </g>
  </g>
  <g style="mix-blend-mode:multiply">
    <path d="M65.7911 17.5818C63.1378 21.1749 60.9035 25.3262 60.7987 29.6867C60.7289 31.8845 61.3573 33.9078 62.2999 35.966C63.1378 38.0242 64.255 39.9428 65.5816 41.6522C68.1651 45.2104 72.0054 47.7221 76.1599 49.1524C80.3493 50.5826 84.8879 51.0013 89.3915 50.9664C87.1572 51.1757 84.8879 51.2803 82.6186 51.1757C80.3494 51.0012 78.0801 50.6524 75.8806 50.0245C71.4817 48.7337 67.432 46.0476 64.6041 42.3847C63.2076 40.5359 62.0905 38.5126 61.2526 36.3846C60.3449 34.3613 59.6117 31.9542 59.8212 29.6519C60.1354 24.9424 62.7538 20.8609 65.7213 17.5818H65.7911Z" fill="#D69157"/>
  </g>
  <g style="mix-blend-mode:multiply">
    <path d="M88.9376 20.4773C89.182 23.0238 88.4837 25.6751 87.3316 27.9775C86.1097 30.2798 84.5387 32.3729 82.6185 34.1869C80.6635 35.9312 78.3942 37.3265 75.9155 38.1289C73.4367 38.9661 70.8533 39.2801 68.3047 39.1405C73.332 38.5126 78.2546 36.7335 81.8156 33.2799C85.3766 29.8612 88.3441 25.5355 88.9376 20.4424V20.4773Z" fill="#A95B19"/>
  </g>
  <g style="mix-blend-mode:multiply">
    <path d="M75.9851 9.977C78.2195 8.93046 80.768 8.44208 83.2817 8.47696C85.8302 8.54673 88.309 9.24442 90.6132 10.3258C92.8824 11.4422 94.9422 13.1864 96.3038 15.3143C97.7003 17.4074 98.7825 19.7796 98.9571 22.2564C98.2588 19.8842 97.0369 17.7563 95.5357 15.8725C94.0345 13.9538 92.2191 12.4189 90.0546 11.4073C85.7953 9.20954 80.7331 8.79093 75.9502 9.977H75.9851Z" fill="#A95B19"/>
  </g>
  <mask id="mask8_48_852" style="mask-type:luminance" maskUnits="userSpaceOnUse" x="60" y="0" width="32" height="26">
    <path d="M62.2986 25.9192L60.3086 12.6631H67.0466L70.4679 0.87207L81.3953 6.80245L83.4202 0.87207L91.6245 11.5468C91.6245 11.5468 85.7244 10.256 76.787 14.7561C67.8496 19.2563 62.2637 25.8843 62.2637 25.8843L62.2986 25.9192Z" fill="white"/>
  </mask>
  <g mask="url(#mask8_48_852)">
    <path d="M62.2986 25.9193L60.3086 12.6632H67.0466L70.4679 0.872192L81.3953 6.80258L83.4202 0.872192L91.6245 11.5469C91.6245 11.5469 85.7244 10.2562 76.787 14.7563C67.8496 19.2564 62.2637 25.8845 62.2637 25.8845L62.2986 25.9193Z" fill="url(#paint10_linear_48_852)"/>
    <g style="mix-blend-mode:screen">
      <path opacity="0.09" d="M71.7959 -8.79089L82.5138 22.3262L117.67 12.698L71.7959 -8.79089Z" fill="#0C0702"/>
      <path opacity="0.18" d="M72.9824 -7.95374L83.1767 21.5238L116.483 12.384L72.9824 -7.95374Z" fill="#180E05"/>
      <path opacity="0.27" d="M74.1689 -7.15137L83.8046 20.6866L115.295 12.0701L74.1689 -7.15137Z" fill="#241507"/>
      <path opacity="0.36" d="M75.3906 -6.349L84.4328 19.8842L114.073 11.7561L75.3906 -6.349Z" fill="#301C0A"/>
      <path opacity="0.45" d="M76.5781 -5.54663L85.0617 19.0819L112.886 11.4422L76.5781 -5.54663Z" fill="#3C230C"/>
      <path opacity="0.55" d="M77.7656 -4.70947L85.7255 18.2795L111.7 11.1281L77.7656 -4.70947Z" fill="#49290F"/>
      <path opacity="0.64" d="M78.9873 -3.9071L86.3537 17.4423L110.478 10.8142L78.9873 -3.9071Z" fill="#553011"/>
      <path opacity="0.73" d="M80.1738 -3.10474L86.9816 16.64L109.29 10.5351L80.1738 -3.10474Z" fill="#613714"/>
      <path opacity="0.82" d="M81.3613 -2.26746L87.6105 15.8377L108.104 10.2212L81.3613 -2.26746Z" fill="#6D3E16"/>
      <path opacity="0.91" d="M82.583 -1.46521L88.2736 15.0003L106.882 9.90717L82.583 -1.46521Z" fill="#794519"/>
      <path d="M83.7695 -0.662842L88.9016 14.198L105.694 9.59323L83.7695 -0.662842Z" fill="#854C1B"/>
    </g>
  </g>
  <g style="mix-blend-mode:multiply">
    <path d="M62.8572 24.5237C64.0791 22.0469 65.8596 19.8492 67.8147 17.8608C69.8046 15.8723 72.1437 14.2676 74.6923 13.0467C77.2758 11.8955 80.1036 11.3373 82.8267 11.0234C85.5848 10.7443 88.4126 10.535 91.1357 11.2676C88.3777 11.0234 85.6546 11.5118 82.9664 11.9653C80.2782 12.4536 77.59 12.9769 75.181 14.163C72.7023 15.2444 70.4679 16.7793 68.4082 18.5585C66.3484 20.3376 64.4631 22.326 62.8223 24.5586L62.8572 24.5237Z" fill="#C4B91D"/>
  </g>
  <g style="mix-blend-mode:multiply">
    <path d="M60.3086 12.698C62.5429 12.5236 64.8122 12.384 67.0466 12.3143L66.6975 12.5933C67.675 8.6165 68.7922 4.67454 69.9093 0.732577L70.1188 0L70.7821 0.38373C74.413 2.40704 78.0438 4.39546 81.6048 6.52342L81.116 6.73273C81.8492 4.77919 82.6522 2.86054 83.49 0.941885C82.9664 2.96519 82.4078 4.9885 81.7794 6.97692L81.6746 7.36065L81.2906 7.18623C77.555 5.37223 73.9242 3.41869 70.2235 1.50004L71.0963 1.15119C69.9093 5.05827 68.7573 9.00023 67.4306 12.8724L67.3259 13.1515H67.0466C64.8122 13.0817 62.5429 12.9422 60.3086 12.7678V12.698Z" fill="#A98319"/>
  </g>
  <path d="M150.172 70.9553C150.172 70.4669 150.067 70.0134 149.893 69.5948C149.858 69.4901 149.788 69.3855 149.718 69.2459C149.579 68.9669 149.404 68.6878 149.195 68.4785C149.09 68.3738 148.985 68.2692 148.88 68.1645C148.636 67.9203 148.357 67.7459 148.043 67.6064C147.973 67.5715 147.903 67.5017 147.798 67.4668C147.763 67.4668 147.693 67.397 147.658 67.397H147.554C147.554 67.397 147.484 67.397 147.449 67.397C147.1 67.2924 146.751 67.1877 146.367 67.1877H116.203C116.203 67.1877 87.9942 81.316 88.0989 81.2462V93.0024H124.931C125.594 93.0024 126.188 92.7931 126.711 92.4791C126.711 92.4791 147.798 78.6299 148.287 78.3159H148.322C149.369 77.6531 150.102 76.5368 150.137 75.2112C150.137 75.2112 150.137 75.2112 150.137 75.1763V70.9553H150.172Z" fill="#BA1F05"/>
  <g style="mix-blend-mode:multiply">
    <path d="M148.358 78.3161C149.021 77.4091 149.3 76.4672 149.3 75.6649C149.23 74.8974 149.091 73.6416 149.091 72.6648V71.095C149.196 70.6415 149.161 70.2926 149.091 69.874C148.916 69.0717 148.462 68.1996 147.625 67.467L147.555 67.3972H147.659C148.812 67.3972 150.033 68.06 150.662 69.2461C151.011 69.8043 151.151 70.5019 151.186 71.1299V72.6997C151.186 73.816 151.22 74.6532 150.906 76.0137C150.557 77.3045 149.44 78.1766 148.323 78.3859L148.358 78.3161Z" fill="#D12D00"/>
  </g>
  <g style="mix-blend-mode:multiply">
    <path d="M126.746 92.5141C129.888 89.4442 133.379 86.8977 136.975 84.5255C140.606 82.1882 144.307 79.9905 148.357 78.316C145.214 81.3859 141.723 83.9325 138.127 86.3046C134.497 88.6419 130.796 90.8396 126.746 92.5141Z" fill="#D12D00"/>
  </g>
  <g style="mix-blend-mode:multiply">
    <path d="M148.357 69.3506C146.716 70.5367 145.145 71.7925 143.504 72.9437L138.511 76.3624C135.125 78.5252 131.738 80.723 128.143 82.5719C131.25 79.9904 134.601 77.7578 137.918 75.4903C141.339 73.3623 144.691 71.1297 148.357 69.3855V69.3506Z" fill="#D12D00"/>
  </g>
  <path d="M88.0996 83.1301H124.827C126.363 83.1301 127.62 84.386 127.62 85.9209V88.3279C127.62 89.8629 126.363 91.1187 124.827 91.1187H88.0996V83.165V83.1301Z" fill="#FEFCFF"/>
  <g style="mix-blend-mode:multiply">
    <path d="M90.5789 85.2231C96.2346 85.0487 101.89 85.0836 107.546 85.0138L116.03 85.0836C118.857 85.1882 121.685 85.6068 124.408 86.3394C121.65 85.7813 118.823 85.4324 115.995 85.3626L107.511 85.4324C101.855 85.3626 96.1997 85.4324 90.5439 85.2231H90.5789Z" fill="#D1BB8A"/>
  </g>
  <g style="mix-blend-mode:multiply">
    <path d="M88.9717 87.5953C94.8718 87.5953 100.737 87.8046 106.637 87.8744L115.47 88.1883L124.302 88.3628C121.37 88.4325 118.402 88.5372 115.47 88.4674L106.637 88.293C100.737 88.0488 94.8718 87.9093 88.9717 87.5604V87.5953Z" fill="#D1BB8A"/>
  </g>
  <mask id="mask9_48_852" style="mask-type:luminance" maskUnits="userSpaceOnUse" x="88" y="55" width="63" height="27">
    <path d="M150.696 58.6062C150.627 58.1527 150.382 57.5248 149.719 56.7922C149.614 56.6527 149.475 56.548 149.37 56.4434C149.3 56.3736 149.23 56.3038 149.16 56.2341C149.091 56.1643 148.986 56.1294 148.811 56.0596C148.253 55.7108 147.624 55.5015 146.926 55.5015H143.679C132.891 54.9433 110.094 55.5015 110.094 55.5015L88.6582 69.56V81.3161H125.49C125.769 81.3161 126.398 81.037 127.201 80.5835L127.271 80.8277L148.881 66.6297C149.963 65.9669 150.696 64.8506 150.696 63.4901V59.269C150.696 59.269 150.766 59.0248 150.696 58.6062Z" fill="white"/>
  </mask>
  <g mask="url(#mask9_48_852)">
    <path d="M147.31 58.2226L126.293 72.1066L127.061 80.1301L127.236 80.8627L148.846 66.6646C149.928 66.0018 150.661 64.8855 150.661 63.525V59.304C150.661 57.2109 149.125 57.4551 147.275 58.2575L147.31 58.2226Z" fill="#F7D911"/>
    <path d="M150.696 58.6062C150.627 58.1527 150.382 57.5248 149.719 56.7922C149.614 56.6527 149.475 56.548 149.37 56.4434C149.3 56.3736 149.23 56.3038 149.16 56.2341C149.091 56.1643 148.986 56.1294 148.811 56.0596C148.253 55.7108 147.624 55.5015 146.926 55.5015H143.679C132.891 54.9433 110.094 55.5015 110.094 55.5015L88.6582 69.56V81.3161H125.49C127.585 81.3161 146.926 67.2576 146.926 67.2576C147.624 67.2576 148.078 67.0483 148.637 66.7343C149.754 66.0715 150.696 64.8855 150.696 63.4901V59.269C150.696 59.269 150.766 59.0248 150.696 58.6062Z" fill="#F7D911"/>
  </g>
  <path d="M125.385 80.5834H88.6582V71.4785L125.595 72.8041C128.178 73.0483 128.178 76.6763 128.178 76.6763C128.178 78.2112 126.922 80.6183 125.385 80.6183V80.5834Z" fill="#FEFCFF"/>
  <g style="mix-blend-mode:multiply">
    <path d="M90.334 75.6647C95.6406 75.4902 100.912 75.4205 106.219 75.4902C111.525 75.4902 116.832 75.7344 122.104 76.0833C116.797 76.0135 111.525 75.7693 106.219 75.874C100.912 75.9089 95.6406 75.874 90.334 75.6995V75.6647Z" fill="#D1BB8A"/>
  </g>
  <g style="mix-blend-mode:multiply">
    <path d="M90.334 78.8392C96.0595 78.6647 101.75 78.6996 107.476 78.6299C110.338 78.6299 113.201 78.7345 116.029 78.6299C118.857 78.4554 121.685 78.0019 124.443 77.1996C121.755 78.1764 118.927 78.7345 116.064 78.9089C113.201 79.0485 110.338 78.9787 107.476 79.0485C101.75 78.9787 96.0246 79.0485 90.334 78.8392Z" fill="#D1BB8A"/>
  </g>
  <g style="mix-blend-mode:multiply">
    <path d="M129.295 71.4438C132.088 69.0019 135.125 66.9088 138.128 64.7808C141.2 62.7575 144.272 60.6993 147.589 58.99C144.796 61.4319 141.758 63.525 138.756 65.653C135.684 67.6763 132.612 69.7344 129.295 71.4438Z" fill="#D18F00"/>
  </g>
  <g style="mix-blend-mode:multiply">
    <path d="M148.88 66.6296C146.017 69.0367 142.91 71.1298 139.838 73.2228C136.696 75.2113 133.554 77.2346 130.202 78.909C133.065 76.502 136.172 74.4089 139.244 72.3158C142.386 70.3274 145.528 68.3041 148.88 66.6296Z" fill="#D18F00"/>
  </g>
  <g style="mix-blend-mode:multiply">
    <path d="M110.094 55.5015C118.542 54.6642 127.026 54.4549 135.474 54.42L141.828 54.4898L145.005 54.5596C146.053 54.6293 147.1 54.4549 148.427 54.9084C149.649 55.3619 150.626 56.3387 151.045 57.5248C151.255 58.1178 151.324 58.7457 151.289 59.3388L151.185 60.9086C151.08 61.99 151.08 62.9668 150.871 64.118C150.591 65.2343 149.788 66.1413 148.811 66.5948C149.649 65.932 150.207 64.9901 150.312 64.0133C150.312 63.0714 150.172 61.9202 150.137 60.9086C150.033 59.8272 150.137 58.7457 149.718 58.048C149.334 57.2806 148.636 56.6875 147.833 56.4782C147.135 56.2689 146.018 56.4434 144.97 56.4085L141.793 56.4782L135.439 56.548C126.991 56.548 118.507 56.3038 110.059 55.4666L110.094 55.5015Z" fill="#D18F00"/>
  </g>
  <mask id="mask10_48_852" style="mask-type:luminance" maskUnits="userSpaceOnUse" x="87" y="43" width="63" height="26">
    <path d="M144.725 44.7221C142.735 44.5476 111.315 43.5011 111.315 43.5011L87.0859 57.5596L124.756 59.862L125.524 68.1296L125.698 68.8622L147.309 54.6642C148.391 54.0014 149.124 52.8851 149.124 51.5246V47.3035C149.124 45.2104 146.715 44.8965 144.725 44.7569V44.7221Z" fill="white"/>
  </mask>
  <g mask="url(#mask10_48_852)">
    <path d="M144.726 44.7219C142.736 44.5475 108.523 43.501 108.523 43.501L87.0869 57.5595L124.757 59.8619L125.525 68.1295L125.699 68.8621L147.31 54.6641C148.392 54.0012 149.125 52.8849 149.125 51.5244V47.3034C149.125 45.2103 146.716 44.8964 144.726 44.7568V44.7219Z" fill="url(#paint11_linear_48_852)"/>
    <path style="mix-blend-mode:screen" d="M154.048 43.9545L120.986 63.3504L81.082 60.0363L112.363 35.059L154.048 43.9545Z" fill="url(#paint12_linear_48_852)"/>
    <g style="mix-blend-mode:screen">
      <path opacity="0.09" d="M95.6406 46.7103L126.991 57.1408L155.479 60.6642L152.477 33.4891C152.477 33.4891 108.733 27.3145 108.314 27.3494C107.895 27.3843 95.6406 46.7103 95.6406 46.7103Z" fill="#00000A"/>
      <path opacity="0.18" d="M96.3037 46.2918L128.807 56.0594L155.2 59.8968L152.093 33.9077C152.093 33.9077 108.942 27.5587 108.558 27.5587C108.174 27.5587 96.3037 46.2569 96.3037 46.2569V46.2918Z" fill="#010015"/>
      <path opacity="0.27" d="M96.9678 45.908L130.658 55.0129L154.921 59.1991L151.71 34.3961C151.71 34.3961 109.152 27.8378 108.768 27.8727C108.384 27.9076 96.9678 45.8732 96.9678 45.8732V45.908Z" fill="#01001F"/>
      <path opacity="0.36" d="M97.665 45.4894L132.507 53.9315L154.676 58.4665L151.394 34.8496C151.394 34.8496 109.465 28.1169 109.046 28.1517C108.627 28.1866 97.665 45.4545 97.665 45.4545V45.4894Z" fill="#01002A"/>
      <path opacity="0.45" d="M98.3291 45.1057L134.323 52.8849L154.397 57.7688L151.011 35.338C151.011 35.338 109.675 28.4308 109.291 28.4657C108.907 28.5006 98.3291 45.0708 98.3291 45.0708V45.1057Z" fill="#020034"/>
      <path opacity="0.55" d="M98.9922 44.687L136.138 51.8035L154.118 57.0362L150.627 35.7915C150.627 35.7915 109.92 28.7099 109.501 28.7448C109.082 28.7796 98.9922 44.687 98.9922 44.687Z" fill="#02003F"/>
      <path opacity="0.64" d="M99.6904 44.3034L137.989 50.757L153.839 56.3386L150.278 36.245C150.278 36.245 110.164 28.989 109.78 29.0239C109.396 29.0588 99.6904 44.2685 99.6904 44.2685V44.3034Z" fill="#030049"/>
      <path opacity="0.73" d="M100.354 43.8847L139.839 49.6756L153.594 55.606L149.928 36.6985C149.928 36.6985 110.443 29.2681 110.024 29.303C109.605 29.3379 100.354 43.8499 100.354 43.8499V43.8847Z" fill="#030054"/>
      <path opacity="0.82" d="M101.018 43.501L141.655 48.6291L153.315 54.9083L149.545 37.1869C149.545 37.1869 110.653 29.5821 110.269 29.6169C109.885 29.6518 101.052 43.501 101.052 43.501H101.018Z" fill="#03005E"/>
      <path opacity="0.91" d="M101.715 43.0824L143.504 47.5476L153.035 54.1757L149.195 37.6404C149.195 37.6404 110.932 29.8611 110.513 29.896C110.094 29.9309 101.715 43.0824 101.715 43.0824Z" fill="#040069"/>
      <path d="M102.379 42.6986L145.32 46.5011L152.757 53.478L148.812 38.1288C148.812 38.1288 111.142 30.1751 110.758 30.21C110.374 30.2448 102.379 42.6986 102.379 42.6986Z" fill="#040073"/>
    </g>
  </g>
  <path d="M123.918 69.3506H87.0859V57.5945L123.289 59.0945C125.384 59.0945 127.723 59.2689 127.723 61.362V65.5831C127.723 67.6761 126.048 69.3506 123.953 69.3506H123.918Z" fill="#AE5810"/>
  <path d="M123.394 68.7227H87.0859V58.2224C87.0859 58.2224 98.1181 58.5015 104.402 59.2341C110.721 59.9318 126.013 59.2689 126.571 62.5481V65.5482C126.571 67.3273 125.14 68.7227 123.394 68.7227Z" fill="#FEFCFF"/>
  <g style="mix-blend-mode:multiply">
    <path d="M88.9717 61.0481C94.9765 60.9435 100.981 61.0481 107.021 61.083C113.026 61.1877 119.066 61.5016 125.001 62.5133C119.031 61.8854 113.026 61.4667 107.021 61.5016C101.016 61.3272 95.0114 61.2923 89.0066 61.0481H88.9717Z" fill="#D1BB8A"/>
  </g>
  <g style="mix-blend-mode:multiply">
    <path d="M88.7607 66.3506C94.1022 66.2808 99.4787 66.4203 104.82 66.4552L112.85 66.6994C115.538 66.8389 118.191 66.6994 120.88 66.6296C118.226 66.8738 115.538 67.118 112.85 66.9785L104.82 66.8738C99.4787 66.6994 94.1022 66.6296 88.7607 66.3157V66.3506Z" fill="#D1BB8A"/>
  </g>
  <g style="mix-blend-mode:multiply">
    <path d="M144.725 44.7222C133.554 44.7919 122.417 44.478 111.28 44.0245L111.559 43.9547C103.46 48.6292 95.3251 53.1991 87.0859 57.5946C95.0109 52.6061 103.006 47.792 111.07 43.0826L111.21 43.0128H111.35C122.487 43.3617 133.658 43.85 144.76 44.7222H144.725Z" fill="#54C4D0"/>
  </g>
  <g style="mix-blend-mode:multiply">
    <path d="M149.159 47.3036C149.718 48.6292 149.997 49.9199 150.137 51.2456C150.416 52.7805 149.439 54.6991 148.007 55.3968L141.304 59.583C136.836 62.3389 132.332 65.025 127.724 67.6064C131.913 64.4319 136.172 61.3272 140.466 58.3271L146.925 53.827C147.693 53.0944 148.112 52.3967 148.182 51.2804C148.322 49.9548 148.601 48.6641 149.159 47.3385V47.3036Z" fill="#54C4D0"/>
  </g>
  <g style="mix-blend-mode:multiply">
    <path d="M126.607 59.9317C128.283 58.8852 129.854 57.734 131.53 56.6875L136.522 53.5827C139.944 51.6292 143.33 49.6059 146.926 47.9663C143.784 50.3733 140.432 52.4315 137.081 54.4897C133.66 56.4084 130.308 58.5015 126.607 59.9317Z" fill="#54C4D0"/>
  </g>
  <path d="M97.1059 89.7231C97.1059 89.7231 101.156 91.3278 105.066 91.3278C108.348 91.3278 107.894 93.0023 107.894 93.0023C107.894 93.0023 113.864 92.9325 115.958 93.0023C115.016 94.4675 112.048 96.0024 107.894 96.7698C103.495 97.6071 92.2881 94.1535 92.2881 94.1535L97.1408 89.7231H97.1059Z" fill="#EEABA2"/>
  <path d="M107.86 92.9674C106.568 93.8395 103.146 93.6651 103.146 93.6651C103.146 93.6651 104.054 94.1884 106.742 93.6651C108.174 93.386 109.675 93.3163 110.792 93.0023H107.86V92.9674Z" fill="#DB8579"/>
  <g style="mix-blend-mode:multiply">
    <path d="M115.959 92.9674C115.016 94.5721 113.271 95.4442 111.63 96.1419C109.919 96.8047 108.209 97.3629 106.288 97.3629C104.438 97.3629 102.658 97.014 100.912 96.6303C99.1665 96.2117 97.4209 95.7233 95.7451 95.0605C99.3061 95.4093 102.832 96.1768 106.323 96.3163C107.999 96.421 109.745 95.8279 111.421 95.4093C113.061 94.8512 114.807 94.2581 116.029 92.9674H115.959Z" fill="#C26250"/>
  </g>
  <mask id="mask11_48_852" style="mask-type:luminance" maskUnits="userSpaceOnUse" x="67" y="58" width="32" height="38">
    <path d="M71.9351 58.1876C71.9351 58.1876 72.9824 62.3389 76.3339 70.3623C79.6855 78.3509 81.7453 84.2813 81.7453 84.2813C86.3187 84.4906 98.6775 89.2698 98.6775 89.2698C98.6775 89.2698 97.1065 89.7233 95.71 92.5141C94.4881 94.9211 94.6626 95.3048 94.6626 95.3048C94.6626 95.3048 81.7104 93.3513 77.9748 91.9559C74.2392 90.5605 69.98 79.7463 67.6758 70.5367C65.3716 61.3272 71.97 58.1527 71.97 58.1527L71.9351 58.1876Z" fill="white"/>
  </mask>
  <g mask="url(#mask11_48_852)">
    <path d="M71.9351 58.1876C71.9351 58.1876 72.9824 62.3389 76.3339 70.3623C79.6855 78.3509 81.7453 84.2813 81.7453 84.2813C86.3187 84.4906 98.6775 89.2698 98.6775 89.2698C98.6775 89.2698 97.1065 89.7233 95.71 92.5141C94.4881 94.9211 94.6626 95.3048 94.6626 95.3048C94.6626 95.3048 81.7104 93.3513 77.9748 91.9559C74.2392 90.5605 69.98 79.7463 67.6758 70.5367C65.3716 61.3272 71.97 58.1527 71.97 58.1527L71.9351 58.1876Z" fill="#F3A2CB"/>
    <g style="mix-blend-mode:screen">
      <path opacity="0.09" d="M72.8086 58.5713L79.372 87.4209L103.601 92.6187L72.8086 58.5713Z" fill="#070406"/>
      <path opacity="0.18" d="M72.9131 58.8503L79.4765 87.2115L103.321 92.3396L72.9131 58.8503Z" fill="#0F080B"/>
      <path opacity="0.27" d="M73.0176 59.0946L79.6159 87.0372L103.077 92.0606L73.0176 59.0946Z" fill="#160B11"/>
      <path opacity="0.36" d="M73.1572 59.3387L79.7556 86.8278L102.832 91.8163L73.1572 59.3387Z" fill="#1E0F17"/>
      <path opacity="0.45" d="M73.2617 59.583L79.86 86.6535L102.553 91.5373L73.2617 59.583Z" fill="#25131C"/>
      <path opacity="0.55" d="M73.3662 59.8271L79.9995 86.4441L102.308 91.2582L73.3662 59.8271Z" fill="#2D1722"/>
      <path opacity="0.64" d="M73.4707 60.0714L80.1389 86.2698L102.029 90.9792L73.4707 60.0714Z" fill="#341B27"/>
      <path opacity="0.73" d="M73.5762 60.3156L80.2792 86.0604L101.785 90.7L73.5762 60.3156Z" fill="#3C1F2D"/>
      <path opacity="0.82" d="M73.6807 60.5597L80.3837 85.8859L101.54 90.4209L73.6807 60.5597Z" fill="#432233"/>
      <path opacity="0.91" d="M73.7852 60.804L80.5231 85.6767L101.261 90.1419L73.7852 60.804Z" fill="#4B2638"/>
      <path d="M73.8896 61.0481L80.6625 85.5022L101.016 89.8977L73.8896 61.0481Z" fill="#522A3E"/>
    </g>
  </g>
  <g style="mix-blend-mode:multiply">
    <path d="M94.6618 95.3047C90.0535 94.8163 85.48 94.2233 80.9415 93.2814C79.7894 93.0023 78.7071 92.793 77.5201 92.3046C76.3331 91.7116 75.5301 90.7348 74.8319 89.793C73.4354 87.8743 72.3881 85.7463 71.4804 83.6184C69.6999 79.3276 68.2336 74.8972 67.256 70.3622C66.7673 68.0598 66.6975 65.6179 67.5004 63.3504C68.3034 61.1178 69.9443 59.234 72.004 58.1875C70.0141 59.3736 68.5827 61.362 67.9543 63.5248C67.3259 65.6877 67.4655 68.025 68.0241 70.1878C69.246 74.6182 70.6076 79.0136 72.4579 83.1998C74.413 87.1766 76.1236 92.1651 81.1859 92.3744C85.6546 93.4558 90.1931 94.3628 94.6967 95.3047H94.6618Z" fill="#DB74B9"/>
  </g>
  <g style="mix-blend-mode:multiply">
    <path d="M74.7275 66.3506C77.3808 72.1763 79.9992 78.0369 82.1638 84.1069L81.8146 83.8278C84.7472 84.3859 87.5751 85.2929 90.368 86.1999C93.161 87.1418 95.919 88.1535 98.677 89.2698L90.1586 86.8976C87.3307 86.0953 84.5028 85.258 81.6401 84.6999H81.3957L81.3259 84.4208C79.2312 78.3858 76.8222 72.4205 74.7275 66.3855V66.3506Z" fill="#DB74B9"/>
  </g>
  <g style="mix-blend-mode:multiply">
    <path d="M98.6765 89.2698C98.1877 89.6884 97.8037 90.1419 97.4546 90.6303C97.1055 91.1187 96.7564 91.5722 96.512 92.1303C96.1629 92.6187 95.9185 93.1769 95.5693 93.7001C95.2551 94.2234 94.8711 94.7118 94.6267 95.3048C94.4173 94.642 94.6267 93.9792 94.8013 93.3513C94.9759 92.7234 95.2551 92.1652 95.5693 91.5722C96.2676 90.5256 97.2451 89.3395 98.6765 89.2698Z" fill="#DB74B9"/>
  </g>
  <defs>
    <linearGradient id="paint0_linear_48_852" x1="99.4106" y1="169.749" x2="99.4106" y2="183.668" gradientUnits="userSpaceOnUse">
      <stop offset="0.05" stop-color="#3E65A8"/>
      <stop offset="1" stop-color="#5278B8"/>
    </linearGradient>
    <linearGradient id="paint1_linear_48_852" x1="23.8052" y1="148.49" x2="16.3355" y2="160.197" gradientUnits="userSpaceOnUse">
      <stop offset="0.05" stop-color="#3E65A8"/>
      <stop offset="1" stop-color="#5278B8"/>
    </linearGradient>
    <linearGradient id="paint2_linear_48_852" x1="65.4089" y1="88.9209" x2="65.4089" y2="167.097" gradientUnits="userSpaceOnUse">
      <stop stop-color="#F0A2CC"/>
      <stop offset="0.53" stop-color="#F192C2"/>
      <stop offset="1" stop-color="#E37AAF"/>
    </linearGradient>
    <radialGradient id="paint3_radial_48_852" cx="0" cy="0" r="1" gradientUnits="userSpaceOnUse" gradientTransform="translate(122.428 160.686) scale(78.98 88.0097)">
      <stop stop-color="#EEE1F4"/>
      <stop offset="1" stop-color="white"/>
    </radialGradient>
    <radialGradient id="paint4_radial_48_852" cx="0" cy="0" r="1" gradientUnits="userSpaceOnUse" gradientTransform="translate(122.954 -1742.17) scale(97.7119 88.0097)">
      <stop stop-color="#EEE1F4"/>
      <stop offset="1" stop-color="white"/>
    </radialGradient>
    <radialGradient id="paint5_radial_48_852" cx="0" cy="0" r="1" gradientUnits="userSpaceOnUse" gradientTransform="translate(129.588 88.6373) scale(53.6916 76.6568)">
      <stop stop-color="#EEE1F4"/>
      <stop offset="1" stop-color="white"/>
    </radialGradient>
    <radialGradient id="paint6_radial_48_852" cx="0" cy="0" r="1" gradientUnits="userSpaceOnUse" gradientTransform="translate(82.8783 39.2509) rotate(69.8956) scale(5.48751 6.8763)">
      <stop stop-color="#F4C8D6"/>
      <stop offset="1" stop-color="white"/>
    </radialGradient>
    <radialGradient id="paint7_radial_48_852" cx="0" cy="0" r="1" gradientUnits="userSpaceOnUse" gradientTransform="translate(102.302 29.0815) rotate(69.8956) scale(5.48751 6.34115)">
      <stop stop-color="#F4C8D6"/>
      <stop offset="1" stop-color="white"/>
    </radialGradient>
    <linearGradient id="paint8_linear_48_852" x1="70.3298" y1="9.10488" x2="70.3298" y2="40.5359" gradientUnits="userSpaceOnUse">
      <stop stop-color="#DC602F"/>
      <stop offset="0.33" stop-color="#DC7E2F"/>
      <stop offset="1" stop-color="#C26115"/>
    </linearGradient>
    <linearGradient id="paint9_linear_48_852" x1="79.6521" y1="9.10495" x2="79.6521" y2="40.536" gradientUnits="userSpaceOnUse">
      <stop stop-color="#DC602F"/>
      <stop offset="0.33" stop-color="#DC7E2F"/>
      <stop offset="1" stop-color="#C26115"/>
    </linearGradient>
    <linearGradient id="paint10_linear_48_852" x1="75.984" y1="0.488462" x2="75.984" y2="20.8262" gradientUnits="userSpaceOnUse">
      <stop stop-color="#F7E56A"/>
      <stop offset="1" stop-color="#F7D911"/>
    </linearGradient>
    <linearGradient id="paint11_linear_48_852" x1="118.124" y1="40.7102" x2="118.124" y2="69.9086" gradientUnits="userSpaceOnUse">
      <stop stop-color="#54C4D0"/>
      <stop offset="1" stop-color="#54ABD0"/>
    </linearGradient>
    <linearGradient id="paint12_linear_48_852" x1="117.565" y1="31.9193" x2="117.565" y2="64.5365" gradientUnits="userSpaceOnUse">
      <stop stop-color="#2B5088"/>
      <stop offset="1" stop-color="#2B3C88"/>
    </linearGradient>
  </defs>
</svg>