<svg xmlns="http://www.w3.org/2000/svg" width="122" height="176" viewBox="0 0 122 176" fill="none">
  <mask id="mask0_48_1157" style="mask-type:luminance" maskUnits="userSpaceOnUse" x="46" y="44" width="21" height="18">
    <path d="M46.7449 44.234C46.7449 44.234 57.9167 45.3503 64.7594 52.5017C71.6021 59.653 58.0214 61.3275 58.0214 61.3275L49.084 58.7111L46.71 44.2689L46.7449 44.234Z" fill="white"/>
  </mask>
  <g mask="url(#mask0_48_1157)">
    <path d="M46.7449 44.234C46.7449 44.234 57.9167 45.3503 64.7594 52.5017C71.6021 59.653 58.0214 61.3275 58.0214 61.3275L49.084 58.7111L46.71 44.2689L46.7449 44.234Z" fill="#5FB06B"/>
    <g style="mix-blend-mode:screen">
      <path opacity="0.09" d="M9.35522 51.0365C9.35522 51.0365 40.6711 44.0595 50.5512 47.3736C60.4312 50.6876 77.8522 56.1296 77.8522 56.1296L64.4112 32.5476L9.04102 41.8967L9.32032 51.0365H9.35522Z" fill="#070402"/>
      <path opacity="0.18" d="M9.63403 50.7574C9.63403 50.7574 40.7055 43.92 50.5856 47.234C60.4656 50.5481 77.4328 55.7808 77.4328 55.7808L64.4805 32.5476L9.11035 41.8967L9.66894 50.7574H9.63403Z" fill="#0F0903"/>
      <path opacity="0.27" d="M9.87914 50.4783C9.87914 50.4783 40.7063 43.7456 50.5863 47.0596C60.4664 50.3736 76.9447 55.4319 76.9447 55.4319L64.4463 32.5476L9.07617 41.8967L9.87914 50.4783Z" fill="#160D05"/>
      <path opacity="0.36" d="M10.1235 50.1992C10.1235 50.1992 40.7063 43.606 50.5863 46.9201C60.4664 50.2341 76.4909 55.0831 76.4909 55.0831L64.4463 32.5476L9.07617 41.8967L10.1235 50.1992Z" fill="#1E1106"/>
      <path opacity="0.45" d="M10.3679 49.9201C10.3679 49.9201 40.7063 43.4316 50.5863 46.7456C60.4664 50.0597 76.037 54.7342 76.037 54.7342L64.4463 32.5476L9.07617 41.8967L10.3679 49.9201Z" fill="#251508"/>
      <path opacity="0.55" d="M10.612 49.6411C10.612 49.6411 40.706 43.2921 50.5861 46.6061C60.4661 49.9201 75.548 54.3854 75.548 54.3854L64.4112 32.5476L9.04102 41.8967L10.612 49.6411Z" fill="#2D1A09"/>
      <path opacity="0.64" d="M10.8909 49.362C10.8909 49.362 40.7405 43.1176 50.6205 46.4317C60.5005 49.7457 75.1286 54.0365 75.1286 54.0365L64.4805 32.5476L9.11035 41.8967L10.9258 49.362H10.8909Z" fill="#341E0B"/>
      <path opacity="0.73" d="M11.1352 49.048C11.1352 49.048 40.7405 42.9432 50.6205 46.2572C60.5006 49.5713 74.6748 53.6528 74.6748 53.6528L64.4805 32.5127L9.11035 41.8618L11.1701 49.048H11.1352Z" fill="#3C220C"/>
      <path opacity="0.82" d="M11.3804 48.7689C11.3804 48.7689 40.7412 42.7688 50.6212 46.0828C60.5013 49.3969 74.1867 53.3039 74.1867 53.3039L64.4463 32.5127L9.07617 41.8618L11.3804 48.7689Z" fill="#43260E"/>
      <path opacity="0.91" d="M11.6247 48.4898C11.6247 48.4898 40.7412 42.6292 50.6212 45.9433C60.5013 49.2573 73.7329 52.9551 73.7329 52.9551L64.4463 32.5127L9.07617 41.8618L11.6247 48.4898Z" fill="#4B2B0F"/>
      <path d="M11.8691 48.2108C11.8691 48.2108 40.7412 42.4548 50.6212 45.7689C60.5013 49.0829 73.279 52.6062 73.279 52.6062L64.4463 32.5127L9.07617 41.8618L11.904 48.1759L11.8691 48.2108Z" fill="#522F11"/>
    </g>
  </g>
  <mask id="mask1_48_1157" style="mask-type:luminance" maskUnits="userSpaceOnUse" x="22" y="152" width="18" height="24">
    <path d="M34.5951 161.69L37.7721 154.679C37.7721 154.679 35.433 155.306 32.5004 154.679C29.5678 154.051 28.1015 152.446 28.1015 152.446L24.2612 161.028L22.2363 163.714L38.2958 175.505C38.2958 175.505 39.6922 174.249 39.0289 169.749C38.3656 165.249 34.63 161.69 34.63 161.69H34.5951Z" fill="white"/>
  </mask>
  <g mask="url(#mask1_48_1157)">
    <path d="M34.5951 161.69L37.7721 154.679C37.7721 154.679 35.433 155.306 32.5004 154.679C29.5678 154.051 28.1015 152.446 28.1015 152.446L24.2612 161.028L22.2363 163.714L38.2958 175.505C38.2958 175.505 39.6922 174.249 39.0289 169.749C38.3656 165.249 34.63 161.69 34.63 161.69H34.5951Z" fill="#AE5810"/>
    <g style="mix-blend-mode:screen">
      <path opacity="0.09" d="M30.5107 146.376L30.6155 163.679L45.837 175.853C45.837 175.853 42.3109 150.143 41.8571 150.178C41.4032 150.213 30.5107 146.341 30.5107 146.341V146.376Z" fill="#070402"/>
      <path opacity="0.18" d="M31.1738 146.969L30.8945 163.504L45.5575 175.226C45.5575 175.226 42.171 150.457 41.7172 150.492C41.2633 150.527 31.1738 146.934 31.1738 146.934V146.969Z" fill="#0F0903"/>
      <path opacity="0.27" d="M31.8374 147.597L31.209 163.4L45.3134 174.702C45.3134 174.702 42.0316 150.876 41.6127 150.911C41.1938 150.946 31.8374 147.632 31.8374 147.632V147.597Z" fill="#160D05"/>
      <path opacity="0.36" d="M32.5359 148.225L31.5234 163.26L45.0692 174.109C45.0692 174.109 41.9272 151.225 41.5082 151.26C41.0893 151.295 32.5359 148.225 32.5359 148.225Z" fill="#1E1106"/>
      <path opacity="0.45" d="M33.1992 148.818L31.8027 163.086L44.7899 173.481C44.7899 173.481 41.7875 151.539 41.3686 151.574C40.9496 151.609 33.1643 148.818 33.1643 148.818H33.1992Z" fill="#251508"/>
      <path opacity="0.55" d="M33.897 149.446L32.1514 162.946L44.58 172.888C44.58 172.888 41.7172 151.888 41.3332 151.923C40.9491 151.958 33.897 149.446 33.897 149.446Z" fill="#2D1A09"/>
      <path opacity="0.64" d="M34.5603 150.074L32.4307 162.807L44.3007 172.295C44.3007 172.295 41.5427 152.237 41.1935 152.271C40.8444 152.306 34.5603 150.074 34.5603 150.074Z" fill="#341E0B"/>
      <path opacity="0.73" d="M35.2239 150.667L32.7451 162.632L44.0566 171.667C44.0566 171.667 41.4382 152.551 41.089 152.586C40.7399 152.62 35.2239 150.632 35.2239 150.632V150.667Z" fill="#3C220C"/>
      <path opacity="0.82" d="M35.9214 151.295L33.0586 162.493L43.8114 171.109C43.8114 171.109 41.3327 152.934 40.9836 152.969C40.6345 153.004 35.9214 151.295 35.9214 151.295Z" fill="#43260E"/>
      <path opacity="0.91" d="M36.5857 151.923L33.3389 162.353L43.5331 170.516C43.5331 170.516 41.1591 153.283 40.8449 153.318C40.5307 153.353 36.5507 151.923 36.5507 151.923H36.5857Z" fill="#4B2B0F"/>
      <path d="M37.2834 152.516L33.6875 162.179L43.3232 169.888C43.3232 169.888 41.0888 153.597 40.8095 153.632C40.5302 153.667 37.3183 152.516 37.3183 152.516H37.2834Z" fill="#522F11"/>
    </g>
  </g>
  <g style="mix-blend-mode:multiply">
    <path d="M38.2609 175.505L22.2363 163.714" stroke="#AE5810" stroke-width="0.5" stroke-miterlimit="10"/>
  </g>
  <g style="mix-blend-mode:multiply">
    <path d="M31.6621 159.004L34.874 161.935" stroke="#AE5810" stroke-width="0.25" stroke-miterlimit="10"/>
  </g>
  <g style="mix-blend-mode:multiply">
    <path d="M31.2441 161.69L35.2241 159.597" stroke="#AE5810" stroke-width="0.25" stroke-miterlimit="10"/>
  </g>
  <mask id="mask2_48_1157" style="mask-type:luminance" maskUnits="userSpaceOnUse" x="96" y="131" width="25" height="16">
    <path d="M118.315 139.015C114.964 135.945 109.971 137.62 109.971 137.62L105.852 131.027C105.852 131.027 104.525 132.736 101.697 133.469C98.8694 134.236 96.9492 133.852 96.9492 133.852L100.65 142.922L101.872 146.76L120.969 143.411C120.969 143.411 121.038 141.527 118.315 139.015Z" fill="white"/>
  </mask>
  <g mask="url(#mask2_48_1157)">
    <path d="M118.315 139.015C114.964 135.945 109.971 137.62 109.971 137.62L105.852 131.027C105.852 131.027 104.525 132.736 101.697 133.469C98.8694 134.236 96.9492 133.852 96.9492 133.852L100.65 142.922L101.872 146.76L120.969 143.411C120.969 143.411 121.038 141.527 118.315 139.015Z" fill="#AE5810"/>
    <g style="mix-blend-mode:screen">
      <path opacity="0.09" d="M98.0312 128.166L108.33 142.259L127.776 143.62C127.776 143.62 110.25 124.468 109.901 124.782C109.552 125.096 98.0312 128.166 98.0312 128.166Z" fill="#070402"/>
      <path opacity="0.18" d="M98.5908 128.375L108.506 141.946L127.253 143.271C127.253 143.271 110.356 124.817 110.007 125.096C109.658 125.375 98.5908 128.375 98.5908 128.375Z" fill="#0F0903"/>
      <path opacity="0.27" d="M99.1492 128.585L108.68 141.632L126.695 142.887C126.695 142.887 110.461 125.131 110.111 125.41C109.762 125.689 99.1143 128.55 99.1143 128.55L99.1492 128.585Z" fill="#160D05"/>
      <path opacity="0.36" d="M99.6726 128.829L108.819 141.353L126.136 142.574C126.136 142.574 110.53 125.515 110.216 125.794C109.902 126.073 99.6377 128.794 99.6377 128.794L99.6726 128.829Z" fill="#1E1106"/>
      <path opacity="0.45" d="M100.231 129.038L109.029 141.073L125.647 142.26C125.647 142.26 110.705 125.899 110.391 126.178C110.077 126.457 100.266 129.073 100.266 129.073L100.231 129.038Z" fill="#251508"/>
      <path opacity="0.55" d="M100.789 129.248L109.203 140.76L125.088 141.876C125.088 141.876 110.774 126.248 110.495 126.492C110.215 126.736 100.789 129.248 100.789 129.248Z" fill="#2D1A09"/>
      <path opacity="0.64" d="M101.313 129.492L109.343 140.48L124.53 141.562C124.53 141.562 110.844 126.631 110.565 126.875C110.286 127.12 101.313 129.527 101.313 129.527V129.492Z" fill="#341E0B"/>
      <path opacity="0.73" d="M101.872 129.701L109.518 140.166L123.971 141.178C123.971 141.178 110.949 126.945 110.67 127.154C110.39 127.364 101.837 129.666 101.837 129.666L101.872 129.701Z" fill="#3C220C"/>
      <path opacity="0.82" d="M102.396 129.945L109.657 139.887L123.412 140.864C123.412 140.864 111.019 127.329 110.774 127.538C110.53 127.747 102.396 129.945 102.396 129.945Z" fill="#43260E"/>
      <path opacity="0.91" d="M102.954 130.155L109.867 139.608L122.889 140.515C122.889 140.515 111.158 127.678 110.914 127.887C110.67 128.096 102.954 130.155 102.954 130.155Z" fill="#4B2B0F"/>
      <path d="M103.513 130.364L110.041 139.294L122.365 140.166C122.365 140.166 111.263 128.027 111.054 128.236C110.844 128.445 103.548 130.399 103.548 130.399L103.513 130.364Z" fill="#522F11"/>
    </g>
  </g>
  <g style="mix-blend-mode:multiply">
    <path d="M121.003 143.411L101.731 146.76" stroke="#AE5810" stroke-width="0.5" stroke-miterlimit="10"/>
  </g>
  <g style="mix-blend-mode:multiply">
    <path d="M105.781 136.748L110.006 137.794" stroke="#AE5810" stroke-width="0.25" stroke-miterlimit="10"/>
  </g>
  <g style="mix-blend-mode:multiply">
    <path d="M109.237 135.597L106.688 139.295" stroke="#AE5810" stroke-width="0.25" stroke-miterlimit="10"/>
  </g>
  <mask id="mask3_48_1157" style="mask-type:luminance" maskUnits="userSpaceOnUse" x="26" y="92" width="80" height="63">
    <path d="M95.1325 108.84C92.9679 106.015 61.6171 92.3398 61.6171 92.3398L48.4903 94.398L26.1816 107.236L34.2812 135.736L28.0669 152.446C28.0669 152.446 29.5332 154.051 32.4658 154.679C35.3984 155.307 37.7374 154.679 37.7374 154.679L47.827 138.283L54.7744 108.387L85.3921 120.073L96.9479 133.922C96.9479 133.922 98.868 134.306 101.696 133.539C104.524 132.771 105.85 131.097 105.85 131.097C105.85 131.097 97.2621 111.736 95.0976 108.91L95.1325 108.84Z" fill="white"/>
  </mask>
  <g mask="url(#mask3_48_1157)">
    <path d="M95.1325 108.84C92.9679 106.015 61.6171 92.3398 61.6171 92.3398L48.4903 94.398L26.1816 107.236L34.2812 135.736L28.0669 152.446C28.0669 152.446 29.5332 154.051 32.4658 154.679C35.3984 155.307 37.7374 154.679 37.7374 154.679L47.827 138.283L54.7744 108.387L85.3921 120.073L96.9479 133.922C96.9479 133.922 98.868 134.306 101.696 133.539C104.524 132.771 105.85 131.097 105.85 131.097C105.85 131.097 97.2621 111.736 95.0976 108.91L95.1325 108.84Z" fill="#3855D0"/>
    <g style="mix-blend-mode:screen">
      <path opacity="0.09" d="M54.8799 108.666L42.556 136.434L28.8008 160.679L54.3562 158.69L58.6504 114.806L54.8799 108.666Z" fill="#040008"/>
      <path opacity="0.18" d="M54.9485 108.945L42.869 136.434L29.6025 160.26L54.5645 157.469L58.6492 114.806L54.9485 108.945Z" fill="#070011"/>
      <path opacity="0.27" d="M55.054 109.224L43.2189 136.434L30.4062 159.842L54.8096 156.283L58.6499 114.806L55.054 109.224Z" fill="#0B0019"/>
      <path opacity="0.36" d="M55.1236 109.538L43.5329 136.434L31.209 159.423L55.0188 155.062L58.6497 114.806L55.1236 109.538Z" fill="#0F0021"/>
      <path opacity="0.45" d="M55.1932 109.817L43.8817 136.434L32.0117 159.004L55.2281 153.841L58.6494 114.806L55.1932 109.817Z" fill="#13002A"/>
      <path opacity="0.55" d="M55.2628 110.096L44.2306 136.434L32.8145 158.551L55.4373 152.655L58.6492 114.806L55.2628 110.096Z" fill="#160032"/>
      <path opacity="0.64" d="M55.3333 110.41L44.5456 136.434L33.6182 158.132L55.6475 151.434L58.6499 114.806L55.3333 110.41Z" fill="#1A003B"/>
      <path opacity="0.73" d="M55.4378 110.689L44.8944 136.434L34.4209 157.714L55.8568 150.213L58.6497 114.806L55.4378 110.689Z" fill="#1E0043"/>
      <path opacity="0.82" d="M55.5074 110.968L45.2084 136.434L35.2236 157.295L56.066 149.027L58.6495 114.806L55.5074 110.968Z" fill="#22004B"/>
      <path opacity="0.91" d="M55.577 111.282L45.5573 136.434L36.0264 156.876L56.3101 147.806L58.6492 114.806L55.577 111.282Z" fill="#250054"/>
      <path d="M55.6468 111.561L45.9064 136.434L36.8643 156.458L56.5196 146.585L58.6492 114.806L55.6468 111.561Z" fill="#29005C"/>
    </g>
    <g style="mix-blend-mode:screen">
      <path opacity="0.09" d="M50.6553 90.3862C50.6553 90.3862 90.7689 112.538 91.6068 114.422C92.4447 116.305 114.684 136.539 114.684 136.539L88.36 70.3973L50.6553 90.4211V90.3862Z" fill="#040008"/>
      <path opacity="0.18" d="M51.877 90.5258C51.877 90.5258 90.9782 112.119 91.7812 113.968C92.5841 115.817 114.055 135.527 114.055 135.527L88.1503 71.0253L51.877 90.4909V90.5258Z" fill="#070011"/>
      <path opacity="0.27" d="M53.0986 90.7002C53.0986 90.7002 91.1525 111.701 91.9904 113.584C92.8283 115.468 113.426 134.62 113.426 134.62L87.9057 71.7927L53.0986 90.7002Z" fill="#0B0019"/>
      <path opacity="0.36" d="M54.3203 90.8398C54.3203 90.8398 91.3618 111.282 92.1647 113.131C92.9677 114.98 112.798 133.643 112.798 133.643L87.696 72.4556L54.3203 90.8398Z" fill="#0F0021"/>
      <path opacity="0.45" d="M55.542 91.0142C55.542 91.0142 91.5361 110.898 92.374 112.747C93.2118 114.596 112.169 132.736 112.169 132.736L87.4863 73.1881L55.542 91.0142Z" fill="#13002A"/>
      <path opacity="0.55" d="M56.7637 91.1536C56.7637 91.1536 91.7453 110.445 92.5483 112.329C93.3512 114.212 111.54 131.794 111.54 131.794L87.2417 73.8857L56.7637 91.1536Z" fill="#160032"/>
      <path opacity="0.64" d="M57.9863 91.3281C57.9863 91.3281 91.9206 110.061 92.7585 111.91C93.5964 113.759 110.913 130.818 110.913 130.818L87.033 74.5835L57.9863 91.3281Z" fill="#1A003B"/>
      <path opacity="0.73" d="M59.208 91.4676C59.208 91.4676 92.1298 109.608 92.9677 111.491C93.8056 113.375 110.284 129.876 110.284 129.876L86.8232 75.2811L59.208 91.4676Z" fill="#1E0043"/>
      <path opacity="0.82" d="M60.4297 91.6421C60.4297 91.6421 92.3042 109.224 93.1421 111.108C93.9799 112.991 109.655 128.969 109.655 128.969L86.5786 76.0138L60.4297 91.6421Z" fill="#22004B"/>
      <path opacity="0.91" d="M61.6514 91.7817C61.6514 91.7817 92.5134 108.805 93.3513 110.654C94.1892 112.503 109.027 127.992 109.027 127.992L86.3689 76.6766L61.6514 91.7468V91.7817Z" fill="#250054"/>
      <path d="M62.874 91.9212C62.874 91.9212 92.6887 108.352 93.5266 110.236C94.3645 112.119 108.399 127.05 108.399 127.05L86.1602 77.4092L62.874 91.9561V91.9212Z" fill="#29005C"/>
    </g>
  </g>
  <g style="mix-blend-mode:multiply">
    <path d="M35.6762 103.154C36.3745 105.456 36.4792 107.933 35.9904 110.34C35.7111 111.526 35.1176 112.712 34.3496 113.654C33.6164 114.596 32.7436 115.608 31.5566 115.922C32.604 115.329 33.1975 114.247 33.8259 113.305C34.4194 112.259 34.9431 111.317 35.1526 110.166C35.4319 109.05 35.5366 107.898 35.5715 106.712C35.6413 105.526 35.6762 104.34 35.6413 103.154H35.6762Z" fill="#3855D0"/>
  </g>
  <g style="mix-blend-mode:multiply">
    <path d="M105.849 131.027C103.405 126.457 101.101 121.817 98.7621 117.213C97.5751 114.945 96.4579 112.573 95.1662 110.41C94.852 109.887 94.5029 109.294 94.1887 109.084C93.7697 108.736 93.2111 108.387 92.6875 108.073C91.6052 107.41 90.4531 106.852 89.3359 106.224C84.7974 103.782 80.1192 101.584 75.4759 99.2819C70.8327 96.9795 66.1894 94.712 61.5811 92.3049C71.3215 95.8632 80.8175 100.014 90.104 104.689C91.2561 105.282 92.4082 105.945 93.5254 106.643C94.084 107.026 94.6425 107.34 95.2011 107.829C95.8994 108.422 96.1437 109.05 96.4929 109.608C97.7846 111.945 98.9018 114.247 99.9491 116.619C102.044 121.364 104.034 126.143 105.814 131.027H105.849Z" fill="#3855D0"/>
  </g>
  <g style="mix-blend-mode:multiply">
    <path d="M36.8633 156.458C38.4343 153.283 40.1101 150.144 41.8557 147.039C43.5664 143.934 45.3119 140.864 47.1274 137.795L47.0226 138.039C48.1398 133.05 49.3268 128.062 50.5836 123.108C51.9103 118.155 53.2369 113.236 54.808 108.352C54.0748 113.445 53.0624 118.468 52.0848 123.457C51.0375 128.48 49.9203 133.469 48.6984 138.422V138.562L48.5937 138.667C46.7433 141.667 44.8232 144.667 42.8681 147.632C40.948 150.597 38.9231 153.527 36.8633 156.423V156.458Z" fill="#3855D0"/>
  </g>
  <g style="mix-blend-mode:multiply">
    <path d="M26.1804 107.271C29.6716 116.55 32.4646 126.004 35.0829 135.527L35.1528 135.806L35.048 136.05C32.8835 141.597 30.6142 147.074 28.0657 152.446C29.6716 146.69 31.5219 141.074 33.477 135.457V135.981C30.6491 126.492 28.0657 116.968 26.1455 107.271H26.1804Z" fill="#3855D0"/>
  </g>
  <mask id="mask4_48_1157" style="mask-type:luminance" maskUnits="userSpaceOnUse" x="13" y="44" width="50" height="64">
    <path d="M61.6175 92.3399C61.6175 92.3399 62.0714 92.5143 62.7347 92.8283C62.8045 92.8283 62.8394 92.7934 62.8394 92.7934L59.6974 83.3396L46.7102 44.2689C42.2065 43.6758 35.3987 45.1759 35.3987 45.1759C35.3987 45.1759 37.3189 49.8853 34.0023 50.8969C30.6507 51.8737 25.6583 46.9201 25.6583 46.9201C25.6583 46.9201 21.6086 46.8852 17.2795 48.769C15.883 49.6062 14.5913 51.5249 13.8232 52.99L14.6611 79.6768C16.5464 84.735 26.0075 107.305 26.182 107.305L48.4907 94.4678L61.6175 92.4096V92.3399Z" fill="white"/>
  </mask>
  <g mask="url(#mask4_48_1157)">
    <path d="M61.6185 92.3397C61.6185 92.3397 62.0723 92.5142 62.7357 92.8281C62.8055 92.8281 62.8404 92.7932 62.8404 92.7932L59.6983 83.3395L46.7111 44.2687C42.2075 43.6757 35.3997 45.1757 35.3997 45.1757C35.3997 45.1757 37.3199 49.8852 34.0032 50.8968C30.6517 51.8736 25.6593 46.92 25.6593 46.92C25.6593 46.92 21.6095 46.8851 17.2805 48.7689C15.884 49.6061 14.5923 51.5247 13.8242 52.9899L14.6621 79.6766C16.5473 84.7349 26.0084 107.305 26.183 107.305L48.4916 94.4677L61.6185 92.4095V92.3397Z" fill="#5FB06B"/>
    <g style="mix-blend-mode:multiply">
      <path d="M34.0031 56.3737C37.4593 54.9086 39.3097 51.141 36.9357 44.8618C36.028 45.0362 35.4345 45.1409 35.4345 45.1409C35.4345 45.1409 36.5516 54.0714 33.2001 55.083C29.8486 56.0598 25.6941 46.8851 25.6941 46.8851C25.6941 46.8851 24.8562 46.8851 23.5645 47.0595C25.0657 55.1877 30.0231 58.0831 34.0031 56.3737Z" fill="#5FB06B"/>
    </g>
    <path d="M31.2103 66.3159C27.9286 57.1064 23.6694 49.7108 22.1682 47.2689C20.667 47.5131 18.9563 47.9666 17.3154 48.7341C23.5646 58.2227 26.6369 67.1532 28.9411 77.6883C31.1405 87.6304 31.6642 99.0377 32.2577 104.166C33.5843 103.677 34.9808 103.154 36.4471 102.596C36.5518 102.561 36.6915 102.491 36.6915 102.491C35.7489 96.7004 35.6441 83.5489 34.0033 76.1883C33.3399 73.2231 32.3624 69.8393 31.1754 66.281L31.2103 66.3159Z" fill="#3855D0"/>
    <path d="M58.0223 94.6073C56.4862 87.8397 54.2169 77.7232 52.7157 71.0951C50.8305 62.7228 45.9428 49.5364 43.883 44.1293C42.312 44.1293 40.706 44.3037 39.3096 44.4781C41.3694 49.4666 45.5937 61.746 48.9103 73.6765C51.3891 82.5721 53.0299 90.9793 53.9027 96.1073C55.1944 95.619 56.3815 95.2003 57.4637 94.7817C57.6383 94.712 57.8477 94.6422 58.0572 94.5724L58.0223 94.6073Z" fill="#3855D0"/>
    <g style="mix-blend-mode:screen">
      <path opacity="0.09" d="M9.3562 51.0365C9.3562 51.0365 40.6721 44.0595 50.5522 47.3736C60.4322 50.6876 77.8532 56.1296 77.8532 56.1296L64.4121 32.5476L9.04199 41.8967L9.32129 51.0365H9.3562Z" fill="#070402"/>
      <path opacity="0.18" d="M9.63501 50.7574C9.63501 50.7574 40.7065 43.92 50.5866 47.234C60.4666 50.5481 77.4338 55.7808 77.4338 55.7808L64.4815 32.5476L9.11133 41.8967L9.66992 50.7574H9.63501Z" fill="#0F0903"/>
      <path opacity="0.27" d="M9.88012 50.4783C9.88012 50.4783 40.7073 43.7456 50.5873 47.0596C60.4673 50.3736 76.9457 55.4319 76.9457 55.4319L64.4473 32.5476L9.07715 41.8967L9.88012 50.4783Z" fill="#160D05"/>
      <path opacity="0.36" d="M10.1245 50.1992C10.1245 50.1992 40.7073 43.606 50.5873 46.9201C60.4673 50.2341 76.4919 55.0831 76.4919 55.0831L64.4473 32.5476L9.07715 41.8967L10.1245 50.1992Z" fill="#1E1106"/>
      <path opacity="0.45" d="M10.3689 49.9201C10.3689 49.9201 40.7073 43.4316 50.5873 46.7456C60.4673 50.0597 76.038 54.7342 76.038 54.7342L64.4473 32.5476L9.07715 41.8967L10.3689 49.9201Z" fill="#251508"/>
      <path opacity="0.55" d="M10.613 49.6411C10.613 49.6411 40.707 43.2921 50.5871 46.6061C60.4671 49.9201 75.549 54.3854 75.549 54.3854L64.4121 32.5476L9.04199 41.8967L10.613 49.6411Z" fill="#2D1A09"/>
      <path opacity="0.64" d="M10.8918 49.362C10.8918 49.362 40.7414 43.1176 50.6215 46.4317C60.5015 49.7457 75.1296 54.0365 75.1296 54.0365L64.4815 32.5476L9.11133 41.8967L10.9267 49.362H10.8918Z" fill="#341E0B"/>
      <path opacity="0.73" d="M11.1362 49.048C11.1362 49.048 40.7414 42.9432 50.6215 46.2572C60.5015 49.5713 74.6757 53.6528 74.6757 53.6528L64.4815 32.5127L9.11133 41.8618L11.1711 49.048H11.1362Z" fill="#3C220C"/>
      <path opacity="0.82" d="M11.3813 48.7689C11.3813 48.7689 40.7422 42.7688 50.6222 46.0828C60.5023 49.3969 74.1877 53.3039 74.1877 53.3039L64.4473 32.5127L9.07715 41.8618L11.3813 48.7689Z" fill="#43260E"/>
      <path opacity="0.91" d="M11.6257 48.4898C11.6257 48.4898 40.7422 42.6292 50.6222 45.9433C60.5023 49.2573 73.7338 52.9551 73.7338 52.9551L64.4473 32.5127L9.07715 41.8618L11.6257 48.4898Z" fill="#4B2B0F"/>
      <path d="M11.8701 48.2108C11.8701 48.2108 40.7422 42.4548 50.6222 45.7689C60.5023 49.0829 73.28 52.6062 73.28 52.6062L64.4473 32.5127L9.07715 41.8618L11.905 48.1759L11.8701 48.2108Z" fill="#522F11"/>
    </g>
  </g>
  <path d="M34.3857 34.3267L35.3981 45.1409C35.3981 45.1409 37.6674 53.6876 32.3957 54.8388C26.74 56.0947 25.6577 46.8851 25.6577 46.8851C25.6577 46.8851 26.2861 43.5711 26.2861 39.664C26.2861 35.7569 24.4707 31.7103 24.4707 31.7103L34.3507 34.3267H34.3857Z" fill="#E07E71"/>
  <mask id="mask5_48_1157" style="mask-type:luminance" maskUnits="userSpaceOnUse" x="4" y="4" width="45" height="41">
    <path d="M37.7372 7.50025C37.7372 7.50025 47.0936 17.1284 48.8042 29.5124C50.4102 41.129 40.2159 45.8733 26.1814 44.0244C12.1119 42.1407 8.72546 34.7103 5.05972 26.8612C-0.665818 14.6516 27.124 -2.96513 37.7372 7.50025Z" fill="white"/>
  </mask>
  <g mask="url(#mask5_48_1157)">
    <path d="M37.7372 7.50038C37.7372 7.50038 47.0936 17.1285 48.8042 29.5126C50.4102 41.1291 40.2159 45.8735 26.1814 44.0246C12.1119 42.1408 8.72546 34.7104 5.05972 26.8613C-0.665818 14.6517 27.124 -2.96501 37.7372 7.50038Z" fill="#EEABA2"/>
    <g style="mix-blend-mode:screen">
      <path opacity="0.09" d="M24.5049 6.66293C24.5049 6.66293 39.2377 20.9656 43.1478 34.3613C47.0579 47.757 48.1751 50.1292 48.1751 50.1292L59.8357 33.7334L42.2052 -2.51172L24.5049 6.69782V6.66293Z" fill="#0C0302"/>
      <path opacity="0.18" d="M25.4824 6.94206C25.4824 6.94206 39.7963 20.8261 43.6016 33.8381C47.3721 46.85 48.4893 49.1524 48.4893 49.1524L59.8007 33.2102L42.6939 -1.9884L25.5173 6.94206H25.4824Z" fill="#180605"/>
      <path opacity="0.27" d="M26.4248 7.22118C26.4248 7.22118 40.3197 20.6866 43.9854 33.3149C47.6512 45.9431 48.7334 48.1757 48.7334 48.1757L59.7307 32.7218L43.1126 -1.46509L26.4248 7.22118Z" fill="#240907"/>
      <path opacity="0.36" d="M27.4023 7.4653C27.4023 7.4653 40.8783 20.547 44.4393 32.7915C48.0003 45.036 49.0128 47.1989 49.0128 47.1989L59.6609 32.1985L43.5665 -0.941895L27.4023 7.4653Z" fill="#300C0A"/>
      <path opacity="0.45" d="M28.3455 7.74445C28.3455 7.74445 41.4025 20.4076 44.8588 32.2683C48.315 44.1291 49.2926 46.2222 49.2926 46.2222L59.5915 31.7102L43.986 -0.383667L28.3105 7.77933L28.3455 7.74445Z" fill="#3C0F0C"/>
      <path opacity="0.55" d="M29.3232 8.02354C29.3232 8.02354 41.9613 20.268 45.3129 31.7451C48.6644 43.2221 49.607 45.2454 49.607 45.2454L59.5918 31.1869L44.475 0.104736L29.3232 7.98866V8.02354Z" fill="#49130F"/>
      <path opacity="0.64" d="M30.2654 8.30257C30.2654 8.30257 42.4845 20.1633 45.6964 31.2566C48.9083 42.35 49.8509 44.3035 49.8509 44.3035L59.4866 30.6985L44.8934 0.662842L30.2305 8.30257H30.2654Z" fill="#551611"/>
      <path opacity="0.73" d="M31.2432 8.54681C31.2432 8.54681 43.0434 19.989 46.1505 30.6985C49.2577 41.4081 50.1654 43.2919 50.1654 43.2919L59.4868 30.1753L45.3825 1.18616L31.2432 8.54681Z" fill="#611914"/>
      <path opacity="0.82" d="M32.2197 8.82593C32.2197 8.82593 43.601 19.8495 46.6034 30.1753C49.6058 40.5012 50.4786 42.3152 50.4786 42.3152L59.4509 29.652L45.8702 1.70947L32.2197 8.82593Z" fill="#6D1C16"/>
      <path opacity="0.91" d="M33.1621 9.10494C33.1621 9.10494 44.1244 19.7099 46.9872 29.652C49.85 39.5941 50.7227 41.3383 50.7227 41.3383L59.3809 29.1636L46.2889 2.23267L33.1621 9.07005V9.10494Z" fill="#791F19"/>
      <path d="M34.1406 9.38397C34.1406 9.38397 44.6491 19.6052 47.442 29.1635C50.235 38.7219 51.0379 40.3964 51.0379 40.3964L59.347 28.6752L46.7787 2.79077L34.1406 9.34908V9.38397Z" fill="#85221B"/>
    </g>
    <g style="mix-blend-mode:multiply">
      <path d="M35.5723 25.2914C36.7244 25.71 37.667 26.1984 38.5747 26.6868L39.4475 27.1752L38.7143 27.6984C38.1208 28.117 37.4226 28.431 36.6196 28.5705C36.9687 27.838 37.4575 27.2449 38.0161 26.7914L38.1557 27.8031C37.5273 27.6287 37.0735 27.2449 36.5847 26.8961C36.1309 26.4775 35.7468 25.9891 35.6072 25.3612L35.5723 25.2914Z" fill="#E3A39A"/>
    </g>
    <path d="M32.2217 32.652C32.2217 32.652 39.3786 29.3031 40.81 29.1287C41.4384 30.7334 41.8224 34.1869 38.2265 35.7219C34.6306 37.2568 32.2217 32.6171 32.2217 32.6171V32.652Z" fill="#CC546F"/>
    <path d="M29.218 29.2335C29.97 29.2335 30.5796 28.6243 30.5796 27.8729C30.5796 27.1216 29.97 26.5125 29.218 26.5125C28.466 26.5125 27.8564 27.1216 27.8564 27.8729C27.8564 28.6243 28.466 29.2335 29.218 29.2335Z" fill="#1C2430"/>
    <path d="M38.6448 24.3147C39.3967 24.3147 40.0063 23.7056 40.0063 22.9542C40.0063 22.2029 39.3967 21.5938 38.6448 21.5938C37.8928 21.5938 37.2832 22.2029 37.2832 22.9542C37.2832 23.7056 37.8928 24.3147 38.6448 24.3147Z" fill="#1C2430"/>
    <g style="mix-blend-mode:multiply">
      <path d="M25.1693 24.6636C24.6805 23.8612 24.8202 22.9542 25.274 22.117C25.5533 21.7682 25.9373 21.4193 26.3912 21.2798C26.845 21.1402 27.3338 21.1751 27.7178 21.3844C26.9847 21.9775 26.5657 22.2565 26.2865 22.8147C25.9024 23.2682 25.6929 23.8961 25.1344 24.6287L25.1693 24.6636Z" fill="#A95B19"/>
    </g>
    <g style="mix-blend-mode:multiply">
      <path d="M35.502 17.5122C35.9209 16.7448 36.7239 16.5355 37.4919 16.4657C38.26 16.5006 39.0979 16.7448 39.4819 17.5122C38.644 17.6867 38.1203 17.6169 37.5268 17.6867C36.9333 17.6169 36.3398 17.6867 35.5369 17.5122H35.502Z" fill="#A95B19"/>
    </g>
    <path style="mix-blend-mode:multiply" d="M27.3225 36.8867C29.8396 35.9668 31.0317 32.9035 29.9853 30.0447C28.9388 27.1858 26.0501 25.614 23.5331 26.5339C21.016 27.4538 19.8239 30.517 20.8703 33.3759C21.9168 36.2347 24.8055 37.8066 27.3225 36.8867Z" fill="url(#paint0_radial_48_1157)"/>
    <path style="mix-blend-mode:multiply" d="M47.5755 28.2208C50.0925 27.3009 51.2847 24.2376 50.2382 21.3788C49.1918 18.5199 46.303 16.9481 43.786 17.868C41.269 18.7879 40.0768 21.8511 41.1233 24.71C42.1697 27.5688 45.0585 29.1407 47.5755 28.2208Z" fill="url(#paint1_radial_48_1157)"/>
  </g>
  <g style="mix-blend-mode:multiply">
    <path d="M39.8669 9.97714C42.1362 12.1749 44.0214 14.7563 45.6274 17.5122C47.2333 20.2681 48.4552 23.2682 49.2233 26.4078C49.9215 29.4776 50.3405 32.9661 49.0487 36.1406C48.4203 37.6755 47.4428 39.1058 46.2209 40.1872C44.9641 41.2338 43.5327 42.0361 42.0315 42.4896C44.7197 40.8151 46.8493 38.4779 47.5824 35.6173C48.3505 32.7917 47.9665 29.7916 47.2682 26.8264C45.8718 20.896 43.0788 15.3494 39.832 9.94226L39.8669 9.97714Z" fill="#C26250"/>
  </g>
  <path d="M18.9198 26.5822C18.9198 26.5822 17.3488 32.7567 18.6754 36.1057C19.0245 36.9429 18.8849 38.1638 19.2689 38.8266C19.7228 39.5592 22.2713 40.9546 26.1815 43.9896C23.5631 43.9896 19.7926 42.5593 19.7926 42.5593C19.7926 42.5593 9.63325 41.4081 4.67577 27.9078C0.346707 16.0819 18.8849 26.5822 18.8849 26.5822H18.9198Z" fill="url(#paint2_linear_48_1157)"/>
  <path d="M15.9528 30.7335C15.9528 30.7335 8.7959 31.5359 12.8457 36.7686C16.0226 40.8849 22.3068 37.9895 22.3068 37.9895L15.9877 30.7335H15.9528Z" fill="#EEABA2"/>
  <g style="mix-blend-mode:multiply">
    <path d="M16.5461 33.1406C16.5461 33.1406 13.5437 33.4895 15.2195 35.6872C16.5461 37.4314 19.1994 36.2105 19.1994 36.2105L16.5461 33.1406Z" fill="#EEABA2"/>
  </g>
  <mask id="mask6_48_1157" style="mask-type:luminance" maskUnits="userSpaceOnUse" x="3" y="1" width="41" height="32">
    <path d="M35.0137 14.0587C34.6646 13.8145 35.6072 18.7333 32.5 20.8612C30.929 21.9427 26.6349 20.8612 22.3058 18.524C21.5727 22.3264 21.817 25.78 19.1987 30.8731C13.124 33.0011 7.57301 31.9894 7.57301 31.9894C7.57301 31.9894 -2.23721 24.0706 9.3186 10.047C20.8744 -3.97661 34.4551 1.60493 38.6794 6.00039C42.9038 10.3959 43.4624 14.8262 43.4624 14.8262C43.4624 14.8262 40.9836 16.6751 35.0137 14.1285V14.0587Z" fill="white"/>
  </mask>
  <g mask="url(#mask6_48_1157)">
    <path d="M35.0137 14.0586C34.6646 13.8144 35.6072 18.7332 32.5 20.8611C30.929 21.9425 26.6349 20.8611 22.3058 18.5238C21.5727 22.3263 21.817 25.7798 19.1987 30.873C13.124 33.001 7.57301 31.9893 7.57301 31.9893C7.57301 31.9893 -2.23721 24.0705 9.3186 10.0469C20.8744 -3.97673 34.4551 1.60481 38.6794 6.00027C42.9038 10.3957 43.4624 14.8261 43.4624 14.8261C43.4624 14.8261 40.9836 16.675 35.0137 14.1284V14.0586Z" fill="url(#paint3_linear_48_1157)"/>
    <g style="mix-blend-mode:multiply">
      <path d="M22.3064 3.31409C25.6928 3.97689 28.9396 6.03509 30.8598 9.13982C31.7326 10.7794 32.1515 12.4887 32.3959 14.233C32.5705 15.9423 32.6403 17.861 31.6628 19.3959C32.1166 17.7214 31.7675 16.047 31.4184 14.4074C30.9994 12.8027 30.5805 11.1282 29.7426 9.76774C28.1716 6.9072 25.3088 4.91878 22.2715 3.31409H22.3064Z" fill="#D5AF8E"/>
    </g>
    <g style="mix-blend-mode:multiply">
      <path d="M19.1999 9.94214C20.2822 13.5701 20.6313 17.4074 20.4218 21.2099C20.2473 23.1285 19.7934 25.0821 18.9206 26.7914C18.0478 28.4659 16.6514 30.245 14.6963 30.5241C16.4419 29.7217 17.3845 28.0473 18.0478 26.4077C18.7111 24.6983 19.0952 22.9541 19.165 21.1052C19.5141 17.4423 19.2348 13.7097 19.165 9.94214H19.1999Z" fill="#D5AF8E"/>
    </g>
    <g style="mix-blend-mode:multiply">
      <path d="M27.7188 8.61658C28.9756 10.0817 29.7436 11.8608 30.2324 13.7097C30.407 14.6516 30.5815 15.6284 30.5117 16.6052C30.4419 17.5819 30.1975 18.5587 29.7785 19.3959C30.1277 15.6284 28.801 12.2446 27.7188 8.61658Z" fill="#D5AF8E"/>
    </g>
    <g style="mix-blend-mode:multiply">
      <path d="M36.166 11.3375C38.3305 12.1398 39.9365 13.2562 41.9614 14.198C40.8093 14.512 39.6572 14.0585 38.6448 13.5701C37.7021 12.9771 36.7595 12.3143 36.166 11.3026V11.3375Z" fill="#D5AF8E"/>
    </g>
    <g style="mix-blend-mode:multiply">
      <path d="M16.1965 12.7677C16.8948 13.7794 17.0344 15.0701 17.2439 16.2562C17.4184 17.4771 17.4534 18.6981 17.4534 19.919C17.3137 22.3261 16.9646 24.9424 15.3936 26.896C15.8125 25.7448 16.0569 24.5936 16.1965 23.4075C16.3362 22.2214 16.4409 21.0702 16.4409 19.8842C16.5107 18.6981 16.4409 17.512 16.4409 16.3259C16.3711 15.1399 16.4758 13.884 16.1267 12.7677H16.1965Z" fill="#D5AF8E"/>
    </g>
    <g style="mix-blend-mode:screen">
      <path opacity="0.09" d="M-4.05273 13.1167C-4.05273 13.1167 19.792 4.43045 28.9739 8.72126C38.1557 13.0121 50.0955 24.1054 50.0955 24.1054L46.1854 0.10476L14.1712 -5.44189L-4.05273 13.1167Z" fill="#070402"/>
      <path opacity="0.18" d="M-2.83032 12.4539C-2.83032 12.4539 20.0718 4.01183 29.2536 8.26776C38.4354 12.5237 49.7469 23.303 49.7469 23.303L46.1859 0.104759L14.1717 -5.44189L-2.86523 12.4539H-2.83032Z" fill="#0F0903"/>
      <path opacity="0.27" d="M-1.64355 11.7911C-1.64355 11.7911 20.3509 3.55834 29.5327 7.81426C38.7145 12.0702 49.4324 22.5356 49.4324 22.5356L46.2205 0.10476L14.2064 -5.44189L-1.60865 11.7911H-1.64355Z" fill="#160D05"/>
      <path opacity="0.36" d="M-0.456055 11.1283C-0.456055 11.1283 20.5958 3.13975 29.7776 7.39567C38.9594 11.6516 49.0838 21.7681 49.0838 21.7681L46.1861 0.139671L14.172 -5.40698L-0.456055 11.1632V11.1283Z" fill="#1E1106"/>
      <path opacity="0.45" d="M0.765625 10.4655C0.765625 10.4655 20.8748 2.68622 30.0566 6.94215C39.2384 11.1981 48.7694 20.9658 48.7694 20.9658L46.2208 0.10476L14.2067 -5.44189L0.765625 10.4655Z" fill="#251508"/>
      <path opacity="0.55" d="M1.95312 9.80268C1.95312 9.80268 21.1197 2.23272 30.3364 6.52353C39.5532 10.8143 48.4208 20.1983 48.4208 20.1983L46.2213 0.104759L14.2072 -5.44189L1.98804 9.80268H1.95312Z" fill="#2D1A09"/>
      <path opacity="0.64" d="M3.13965 9.1399C3.13965 9.1399 21.3985 1.81413 30.5803 6.07006C39.7621 10.326 48.0711 19.4309 48.0711 19.4309L46.1859 0.139671L14.1718 -5.40698L3.13965 9.17479V9.1399Z" fill="#341E0B"/>
      <path opacity="0.73" d="M4.36133 8.47707C4.36133 8.47707 21.6776 1.36061 30.8594 5.61653C40.0412 9.87245 47.7567 18.6285 47.7567 18.6285L46.2206 0.104759L14.2065 -5.44189L4.36133 8.47707Z" fill="#3C220C"/>
      <path opacity="0.82" d="M5.54858 7.81429C5.54858 7.81429 21.9222 0.907133 31.104 5.19794C40.2858 9.45386 47.3729 17.8611 47.3729 17.8611L46.151 0.13967L14.1369 -5.40698L5.51367 7.81429H5.54858Z" fill="#43260E"/>
      <path opacity="0.91" d="M6.73535 7.15145C6.73535 7.15145 22.2013 0.48849 31.3831 4.74441C40.5649 9.00034 47.0585 17.0587 47.0585 17.0587L46.1857 0.104759L14.1716 -5.44189L6.73535 7.11657V7.15145Z" fill="#4B2B0F"/>
      <path d="M7.95703 6.48864C7.95703 6.48864 22.4803 0.0349903 31.6622 4.3258C40.844 8.58172 46.7441 16.2912 46.7441 16.2912L46.2204 0.104759L14.2062 -5.44189L7.95703 6.45376V6.48864Z" fill="#522F11"/>
    </g>
  </g>
  <g style="mix-blend-mode:multiply">
    <path d="M22.3066 18.489C22.4114 20.6519 22.3066 22.7798 21.9575 24.9427C21.4687 27.0706 20.6658 29.1637 19.2344 30.8382C19.7231 28.7102 20.4214 26.7567 20.7356 24.6985C21.2243 22.6752 21.3989 20.5123 22.3066 18.489Z" fill="#A95B19"/>
  </g>
  <g style="mix-blend-mode:multiply">
    <path d="M19.8278 42.5594C16.2319 42.664 12.6709 40.9896 10.0176 38.5128C7.29448 36.036 5.40924 32.7917 4.32697 29.4079C3.8382 27.7683 3.10505 25.9892 3.07014 24.1403C2.9305 22.3263 3.2447 20.5123 3.80329 18.803C4.92047 15.4191 6.98027 12.4888 9.31936 9.94226C7.32939 12.7679 5.54889 15.768 4.78083 19.082C4.01277 22.3961 4.29206 25.7101 6.07256 28.6753C7.64359 31.6405 9.38918 34.4661 11.6584 36.8034C13.9277 39.1407 16.5461 41.1989 19.8278 42.5245V42.5594Z" fill="#D69157"/>
  </g>
  <g style="mix-blend-mode:multiply">
    <path d="M19.8281 2.12809C22.0974 0.872241 24.7158 0.314087 27.3691 0.314087C30.0224 0.314087 32.6757 1.01178 35.0497 2.16297C37.4237 3.31416 39.6231 5.19793 40.9847 7.43055C42.4161 9.62828 43.4285 12.14 43.4983 14.7563C42.6255 12.3493 41.3338 10.2213 39.7628 8.37243C38.1568 6.48866 36.3763 5.02351 34.1769 3.97697C32.0123 2.89555 29.6733 2.23274 27.2643 1.88389C24.8554 1.56993 22.3418 1.70947 19.8281 2.19786V2.12809Z" fill="#A95B19"/>
  </g>
  <g style="mix-blend-mode:multiply">
    <path d="M31.6628 7.11658C34.1416 8.23288 35.573 11.0934 35.6428 13.8144C35.6079 15.1749 35.5031 16.5354 35.0493 17.8262C34.5954 19.082 33.7925 20.4076 32.5007 20.8611C33.4433 19.9541 33.8623 18.7332 34.1067 17.5471C34.351 16.3261 34.4558 15.0703 34.386 13.8493C34.386 11.4074 33.4084 9.07012 31.6279 7.11658H31.6628Z" fill="#A95B19"/>
  </g>
  <path d="M26.3213 58.5365L37.6327 105.631C37.6327 105.631 50.7247 97.4678 58.2656 96.491C65.8066 95.5142 74.1854 97.2584 74.1854 97.2584C74.1854 97.2584 80.3299 83.9325 90.5939 82.2232C100.858 80.5487 99.0775 81.7348 99.0775 81.7348L95.7958 32.1637L87.5566 31.1521C87.5566 31.1521 81.6565 30.3149 74.9884 36.0011C68.3202 41.6872 66.4001 49.92 66.4001 49.92C66.4001 49.92 54.7395 45.5594 43.1488 48.7688C31.5581 51.9782 26.3213 58.5016 26.3213 58.5016V58.5365Z" fill="white"/>
  <g style="mix-blend-mode:multiply">
    <path d="M83.1224 32.3383C80.9928 32.8615 79.1075 34.0476 77.4318 35.3732C75.756 36.7337 74.2897 38.3733 72.998 40.1175C71.7062 41.8618 70.4843 43.6758 69.4719 45.5944C68.5292 47.5131 67.4819 49.5364 67.447 51.7341C67.3073 49.5364 68.2849 47.4433 69.2275 45.4898C70.2399 43.5362 71.392 41.6873 72.6838 39.9082C74.0104 38.164 75.5116 36.5593 77.2572 35.1988C78.9679 33.8732 80.9578 32.722 83.1224 32.3383Z" fill="#D1BB8A"/>
  </g>
  <g style="mix-blend-mode:multiply">
    <path d="M28.7305 58.8504C33.7927 54.3503 40.1117 51.2804 46.7799 50.0246C50.1314 49.4315 53.5528 49.606 56.9392 49.8153C60.2558 50.0943 63.8168 50.3734 66.7494 52.1177C65.318 51.2107 63.6074 50.9316 61.9665 50.6176C60.2908 50.3385 58.615 50.1641 56.9392 50.0595C53.5877 49.885 50.1663 49.7804 46.8846 50.4083C43.568 50.9665 40.3561 52.013 37.3188 53.4781C34.2814 54.9433 31.3838 56.7224 28.8003 58.8853L28.7305 58.8504Z" fill="#D1BB8A"/>
  </g>
  <g style="mix-blend-mode:multiply">
    <path d="M29.917 63.8041C32.9892 75.9788 35.8171 88.2233 38.4006 100.503C35.3283 88.328 32.5005 76.0835 29.917 63.8041Z" fill="#D1BB8A"/>
  </g>
  <mask id="mask7_48_1157" style="mask-type:luminance" maskUnits="userSpaceOnUse" x="30" y="30" width="72" height="75">
    <path d="M30.7207 58.1875L41.4386 104.096C41.4386 104.096 50.7601 99.0025 58.301 97.9908C65.842 97.0141 74.2208 97.2234 74.2208 97.2234C74.2208 97.2234 75.5475 97.2932 76.8043 95.9327C77.1534 95.5838 77.0836 94.8512 77.0138 94.0489C80.3653 90.8046 86.5796 85.7115 92.6193 84.7347C102.883 83.0602 101.452 83.723 101.452 83.723L96.5295 30.6287C96.5295 30.6287 85.0435 30.9775 78.3753 36.6288C71.7072 42.2801 67.4828 53.0944 67.4828 53.0944C67.4828 53.0944 57.7774 48.1756 46.1866 51.385C34.5959 54.5944 30.7556 58.1875 30.7556 58.1875H30.7207Z" fill="white"/>
  </mask>
  <g mask="url(#mask7_48_1157)">
    <path d="M30.7207 58.1875L41.4386 104.096C41.4386 104.096 50.7601 99.0025 58.301 97.9908C65.842 97.0141 74.2208 97.2234 74.2208 97.2234C74.2208 97.2234 75.5475 97.2932 76.8043 95.9327C77.1534 95.5838 77.0836 94.8512 77.0138 94.0489C80.3653 90.8046 86.5796 85.7115 92.6193 84.7347C102.883 83.0602 101.452 83.723 101.452 83.723L96.5295 30.6287C96.5295 30.6287 85.0435 30.9775 78.3753 36.6288C71.7072 42.2801 67.4828 53.0944 67.4828 53.0944C67.4828 53.0944 57.7774 48.1756 46.1866 51.385C34.5959 54.5944 30.7556 58.1875 30.7556 58.1875H30.7207Z" fill="url(#paint4_linear_48_1157)"/>
    <path style="mix-blend-mode:multiply" d="M99.2174 59.8619C99.2174 59.8619 92.8984 63.3504 93.841 64.8853C94.7836 66.4202 97.3671 72.6297 100.823 72.2111C104.28 71.7925 99.2174 59.827 99.2174 59.827V59.8619Z" fill="url(#paint5_linear_48_1157)"/>
    <path style="mix-blend-mode:multiply" d="M29.2539 91.9209C29.2539 91.9209 37.912 91.7814 41.8221 89.7581C45.7323 87.7348 48.6649 82.7114 41.4381 78.8043C36.7599 79.816 27.8574 82.537 27.8574 82.537L29.2888 91.9209H29.2539Z" fill="url(#paint6_linear_48_1157)"/>
    <g style="mix-blend-mode:multiply">
      <path d="M76.9792 94.0488L69.7175 48.2104C69.3684 48.8733 69.0542 49.4663 68.8098 50.0245C68.8098 50.0942 68.74 50.164 68.7051 50.2338C68.4607 50.757 68.2512 51.2105 68.0417 51.6291C68.0417 51.6989 68.0068 51.7338 67.9719 51.8036C67.7974 52.1524 67.6577 52.4664 67.5879 52.7106C67.5879 52.7455 67.5879 52.7803 67.553 52.8152C67.4831 52.9548 67.4482 53.0943 67.4482 53.0943L74.2211 97.2233C74.2211 97.2233 75.5478 97.2931 76.8046 95.9326C77.1537 95.5838 77.0839 94.8512 77.0141 94.0488H76.9792Z" fill="#D58A69"/>
    </g>
    <g style="mix-blend-mode:screen">
      <path opacity="0.09" d="M27.7526 61.4318C27.7526 61.4318 43.4979 52.292 53.4477 52.9897C63.3976 53.6874 68.7042 55.92 68.7042 55.92C68.7042 55.92 76.0008 38.7219 86.0554 36.0358C96.11 33.3497 101.207 31.6055 101.207 31.6055L96.1798 24.7681L21.0146 57.0363L27.7526 61.4318Z" fill="#070402"/>
      <path opacity="0.18" d="M27.6833 61.1875C27.6833 61.1875 43.4285 52.0478 53.3784 52.7455C63.3282 53.4432 68.6348 55.6758 68.6348 55.6758C68.6348 55.6758 75.9314 38.4777 85.986 35.7915C96.0406 33.1054 101.138 31.3612 101.138 31.3612L96.1104 24.5238L20.9453 56.7921L27.6833 61.1875Z" fill="#0F0903"/>
      <path opacity="0.27" d="M27.613 60.9433C27.613 60.9433 43.3582 51.8035 53.3081 52.5012C63.2579 53.1989 68.5645 55.4315 68.5645 55.4315C68.5645 55.4315 75.8611 38.2334 85.9157 35.5473C95.9703 32.8612 101.067 31.1169 101.067 31.1169L96.0401 24.2795L20.875 56.5478L27.613 60.9433Z" fill="#160D05"/>
      <path opacity="0.36" d="M27.5427 60.734C27.5427 60.734 43.2879 51.5943 53.2378 52.292C63.1876 52.9897 68.4942 55.2223 68.4942 55.2223C68.4942 55.2223 75.7908 38.0242 85.8454 35.338C95.9 32.6519 100.997 30.9077 100.997 30.9077L95.9698 24.0703L20.8047 56.3386L27.5427 60.734Z" fill="#1E1106"/>
      <path opacity="0.45" d="M27.4733 60.4898C27.4733 60.4898 43.2186 51.35 53.1684 52.0477C63.1183 52.7454 68.4249 54.978 68.4249 54.978C68.4249 54.978 75.7215 37.7799 85.7761 35.0938C95.8307 32.4077 100.928 30.6634 100.928 30.6634L95.9005 23.826L20.7354 56.0943L27.4733 60.4898Z" fill="#251508"/>
      <path opacity="0.55" d="M27.404 60.2456C27.404 60.2456 43.1492 51.1059 53.0991 51.8036C63.049 52.5013 68.3555 54.7339 68.3555 54.7339C68.3555 54.7339 75.6521 37.5358 85.7067 34.8496C95.7613 32.1635 100.858 30.4193 100.858 30.4193L95.8311 23.5819L20.666 55.8502L27.404 60.2456Z" fill="#2D1A09"/>
      <path opacity="0.64" d="M27.3347 60.0015C27.3347 60.0015 43.0799 50.8617 53.0298 51.5594C62.9796 52.2571 68.2862 54.4897 68.2862 54.4897C68.2862 54.4897 75.5828 37.2916 85.6374 34.6055C95.692 31.9194 100.789 30.1751 100.789 30.1751L95.7618 23.3378L20.5967 55.606L27.3347 60.0015Z" fill="#341E0B"/>
      <path opacity="0.73" d="M27.2643 59.7921C27.2643 59.7921 43.0096 50.6524 52.9594 51.3501C62.9093 52.0478 68.2159 54.2804 68.2159 54.2804C68.2159 54.2804 75.5125 37.0823 85.5671 34.3961C95.6217 31.71 100.719 29.9658 100.719 29.9658L95.6915 23.1284L20.5264 55.3967L27.2643 59.7921Z" fill="#3C220C"/>
      <path opacity="0.82" d="M27.194 59.5479C27.194 59.5479 42.9393 50.4081 52.8891 51.1058C62.839 51.8035 68.1456 54.0361 68.1456 54.0361C68.1456 54.0361 75.4422 36.838 85.4968 34.1519C95.5514 31.4658 100.649 29.7215 100.649 29.7215L95.6212 22.8842L20.4561 55.1524L27.194 59.5479Z" fill="#43260E"/>
      <path opacity="0.91" d="M27.1237 59.3037C27.1237 59.3037 42.869 50.164 52.8188 50.8617C62.7687 51.5594 68.0753 53.792 68.0753 53.792C68.0753 53.792 75.3719 36.5939 85.4265 33.9077C95.4811 31.2216 100.578 29.4774 100.578 29.4774L95.5509 22.64L20.3857 54.9083L27.1237 59.3037Z" fill="#4B2B0F"/>
      <path d="M27.0544 59.0596C27.0544 59.0596 42.7996 49.9198 52.7495 50.6175C62.6993 51.3152 68.0059 53.5478 68.0059 53.5478C68.0059 53.5478 75.3025 36.3497 85.3571 33.6636C95.4117 30.9775 100.509 29.2333 100.509 29.2333L95.4815 22.3959L20.3164 54.6641L27.0544 59.0596Z" fill="#522F11"/>
    </g>
  </g>
  <g style="mix-blend-mode:multiply">
    <path d="M41.4375 104.131C44.1955 102.421 47.1281 100.956 50.1305 99.7353C53.1329 98.5143 56.3448 97.5375 59.6266 97.1538C62.8734 96.7701 66.1201 96.5608 69.4019 96.4561C71.0078 96.4212 72.6836 96.3863 74.2546 96.4212C74.7783 96.4212 75.4416 96.1073 75.9304 95.6886C76.2795 95.3398 76.2097 95.5491 76.2446 95.2352C76.2446 94.9561 76.2446 94.5723 76.2097 94.1886V93.77L76.4541 93.4909C79.8405 90.3164 83.576 87.421 87.94 85.607C90.1046 84.6651 92.4786 84.2116 94.7478 84.0372L98.1692 83.6883L99.8799 83.5837H100.753C100.962 83.5837 101.521 83.5139 101.416 83.7581C101.486 83.5488 100.962 83.6883 100.753 83.6883L99.9148 83.8279L98.239 84.107L94.8526 84.7698C92.5833 85.1884 90.4188 85.6419 88.3939 86.6884C84.379 88.7117 80.7831 91.5374 77.5712 94.677L77.8156 94.0142C77.8505 94.4328 77.9203 94.8514 77.8854 95.3747C77.8854 95.6538 77.8156 95.9677 77.6061 96.3166C77.3268 96.7003 77.257 96.7352 77.0476 96.9445C76.3144 97.5724 75.4416 98.0608 74.3244 98.1306H69.4717C66.2598 98.1306 63.0479 98.305 59.836 98.6189C53.4821 99.1073 47.4074 101.584 41.4724 104.166L41.4375 104.131Z" fill="#C26250"/>
  </g>
  <g style="mix-blend-mode:multiply">
    <path d="M96.4932 30.6637C93.2464 31.1869 90.0694 31.9195 87.0321 32.9661C84.0297 34.0475 81.0971 35.4429 78.758 37.5011C76.384 39.5593 74.394 42.1407 72.5437 44.7571C70.7282 47.4432 69.0525 50.2339 67.4814 53.1294C68.3892 49.9549 69.7856 46.9548 71.4265 44.0594C73.0673 41.1639 75.0922 38.4778 77.6408 36.1754C80.2592 33.9428 83.4362 32.5126 86.683 31.7102C89.9298 30.9079 93.2464 30.4893 96.5281 30.6637H96.4932Z" fill="#C26250"/>
  </g>
  <g style="mix-blend-mode:multiply">
    <path d="M101.416 83.7581C99.8796 74.9672 99.0068 66.1414 98.0991 57.2807C97.366 48.42 96.5979 39.5593 96.4932 30.6637C98.0293 39.4546 98.9021 48.2804 99.8098 57.1411C100.543 66.0018 101.311 74.8625 101.416 83.7581Z" fill="#C26250"/>
  </g>
  <path d="M30.72 81.7348C30.72 81.7348 34.5952 80.1999 36.7597 79.8161C38.9242 79.4324 40.6 78.3161 41.4379 78.8045C42.2758 79.2929 38.9592 81.2115 38.9592 81.2115C38.9592 81.2115 41.1586 81.2813 42.7296 81.3511C44.6847 81.4208 46.7445 81.8394 46.5699 82.7116C46.3604 83.7581 45.4877 83.6186 45.4877 83.6186C45.4877 83.6186 46.0113 84.2116 45.7669 84.9791C45.5226 85.7465 44.5101 85.5721 44.5101 85.5721C44.5101 85.5721 45.0338 86.0256 44.7545 86.8279C44.5101 87.4907 43.358 87.421 43.358 87.421C43.358 87.421 44.1261 88.6768 42.4154 88.9908C40.8444 89.2699 28.9395 87.1419 28.9395 87.1419L30.7549 81.665L30.72 81.7348Z" fill="#EEABA2"/>
  <path d="M38.9238 82.7813C40.0759 82.5371 41.1582 82.6767 42.2754 82.7813C43.3576 82.9906 44.4399 83.1651 45.4873 83.7232C44.3352 83.9674 43.2529 83.8279 42.1357 83.7232C41.0535 83.5139 39.9712 83.3395 38.9238 82.7813Z" fill="#DB8579"/>
  <path d="M38.1562 84.8046C39.3083 84.5604 40.3906 84.7 41.5078 84.8046C42.5901 85.0139 43.6723 85.1884 44.7197 85.7465C43.5676 85.9907 42.4853 85.8512 41.3681 85.7465C40.2859 85.5372 39.2036 85.3628 38.1562 84.8046Z" fill="#DB8579"/>
  <path d="M36.7598 86.6185C37.9119 86.3743 38.9941 86.5138 40.1113 86.6185C41.1936 86.8278 42.2758 87.0022 43.3232 87.5604C42.1711 87.8046 41.0888 87.665 39.9716 87.5604C38.8894 87.3511 37.8071 87.1766 36.7598 86.6185Z" fill="#DB8579"/>
  <g style="mix-blend-mode:multiply">
    <path d="M38.96 81.2114C40.6008 81.0719 42.1718 80.8975 43.8476 81.037C44.6855 81.1417 45.5234 81.1766 46.3962 81.6649C46.6056 81.8045 46.85 81.9789 46.9897 82.3626C47.0944 82.8161 46.9897 83.0603 46.8849 83.2696C46.6755 83.7929 46.082 84.1766 45.4535 84.072L45.8376 83.3743C46.2565 83.8976 46.3263 84.5604 46.082 85.1534C45.7678 85.886 44.9997 85.9558 44.5109 85.8162L44.6506 85.5023C45.0346 85.9557 44.9997 86.5139 44.7553 86.8976C44.8601 86.4441 44.7204 85.9557 44.4062 85.7813L43.9523 85.5023H44.5458C44.9997 85.4325 45.4535 85.2929 45.4535 84.979C45.5583 84.5953 45.3837 84.2115 45.1743 83.9324L44.5458 83.165L45.5583 83.2696C45.9423 83.3045 46.3962 82.5719 45.9074 82.4673C45.3488 82.1533 44.5458 81.9789 43.7778 81.8742C42.2417 81.6998 40.5659 81.5254 38.9949 81.2114H38.96Z" fill="#C26250"/>
  </g>
  <g style="mix-blend-mode:multiply">
    <path d="M30.7197 81.7347C32.3257 80.6882 34.0713 80.0254 35.9216 79.5021C36.8991 79.3277 37.7021 79.1533 38.6098 78.9091C39.4826 78.7347 40.5299 78.2812 41.4377 78.8044C40.5299 78.6649 39.727 79.3277 38.8542 79.6068C38.0163 79.9905 36.9689 80.1998 36.1311 80.444C34.3506 80.8277 32.5701 81.4557 30.7197 81.7347Z" fill="#C26250"/>
  </g>
  <mask id="mask8_48_1157" style="mask-type:luminance" maskUnits="userSpaceOnUse" x="1" y="50" width="31" height="39">
    <path d="M15.8823 50.2339C15.8823 50.2339 14.6604 51.3502 13.4734 53.6875C9.63311 61.1179 1.63832 77.2346 1.84779 81.9789C2.09217 88.2232 31.7323 88.3628 31.7323 88.3628C31.7323 88.3628 29.9518 86.3046 30.4057 83.7929L30.8595 81.2812L17.3137 76.502L22.8996 64.2924C22.8996 64.2924 20.0019 49.4664 15.9172 50.2688L15.8823 50.2339Z" fill="white"/>
  </mask>
  <g mask="url(#mask8_48_1157)">
    <path d="M15.8823 50.2339C15.8823 50.2339 14.6604 51.3502 13.4734 53.6875C9.63311 61.1179 1.63832 77.2346 1.84779 81.9789C2.09217 88.2232 31.7323 88.3628 31.7323 88.3628C31.7323 88.3628 29.9518 86.3046 30.4057 83.7929L30.8595 81.2812L17.3137 76.502L22.8996 64.2924C22.8996 64.2924 20.0019 49.4664 15.9172 50.2688L15.8823 50.2339Z" fill="#5FB06B"/>
    <g style="mix-blend-mode:screen">
      <path opacity="0.09" d="M22.2366 67.0134C21.7478 67.3274 12.8104 76.9904 14.1021 78.8044C15.3938 80.6184 32.3959 83.165 32.3959 83.165L22.2366 67.0134Z" fill="#070402"/>
      <path opacity="0.18" d="M22.2023 67.3622C21.7135 67.6413 13.1601 76.8508 14.382 78.6299C15.6039 80.409 31.9776 82.851 31.9776 82.851L22.2023 67.3622Z" fill="#0F0903"/>
      <path opacity="0.27" d="M22.1669 67.7111C21.7131 67.9901 13.4739 76.7462 14.626 78.4206C15.7781 80.0951 31.5582 82.5021 31.5582 82.5021L22.132 67.7111H22.1669Z" fill="#160D05"/>
      <path opacity="0.36" d="M22.1324 68.0599C21.7135 68.339 13.7885 76.6416 14.9056 78.2114C16.0228 79.7812 31.1746 82.1882 31.1746 82.1882L22.1324 68.0599Z" fill="#1E1106"/>
      <path opacity="0.45" d="M22.0973 68.4437C21.6784 68.6879 14.1025 76.5369 15.1848 78.037C16.2671 79.537 30.7904 81.8743 30.7904 81.8743L22.0973 68.4088V68.4437Z" fill="#251508"/>
      <path opacity="0.55" d="M22.063 68.7925C21.6789 69.0367 14.4173 76.4322 15.4297 77.8625C16.4422 79.2928 30.372 81.5951 30.372 81.5951L22.063 68.8274V68.7925Z" fill="#2D1A09"/>
      <path opacity="0.64" d="M22.0274 69.1414C21.6783 69.3507 14.7657 76.2927 15.7084 77.6532C16.651 79.0137 29.9873 81.2463 29.9873 81.2463L22.0274 69.1414Z" fill="#341E0B"/>
      <path opacity="0.73" d="M21.9926 69.4902C21.6435 69.6995 15.0801 76.1881 15.9529 77.4439C16.8257 78.6998 29.5685 80.8975 29.5685 80.8975L21.9926 69.4902Z" fill="#3C220C"/>
      <path opacity="0.82" d="M21.9571 69.8739C21.6429 70.0832 15.3936 76.1182 16.2315 77.3043C17.0694 78.4904 29.1838 80.6532 29.1838 80.6532L21.9571 69.9088V69.8739Z" fill="#43260E"/>
      <path opacity="0.91" d="M21.9224 70.2228C21.6082 70.3972 15.7081 75.9787 16.4761 77.0951C17.2442 78.2114 28.7651 80.3044 28.7651 80.3044L21.9224 70.2228Z" fill="#4B2B0F"/>
      <path d="M21.888 70.5717C21.6087 70.7461 16.0578 75.8741 16.756 76.8858C17.4542 77.8974 28.3816 79.9556 28.3816 79.9556L21.888 70.5717Z" fill="#522F11"/>
    </g>
  </g>
  <g style="mix-blend-mode:multiply">
    <path d="M31.6976 88.3628C31.6976 88.3628 29.9171 86.3046 30.3709 83.7929L30.8248 81.2812" stroke="#5FB06B" stroke-width="0.31" stroke-miterlimit="10"/>
  </g>
  <g style="mix-blend-mode:multiply">
    <path d="M13.1241 54.3503L7.15417 68.5484C6.24647 70.9205 5.19911 73.2927 4.39614 75.6648C3.9772 76.8509 3.59317 78.0719 3.27896 79.258C2.99967 80.3394 2.72036 81.8743 2.99966 82.3278C3.24404 82.9906 4.36123 83.6534 5.40858 84.1069C6.49085 84.5953 7.71276 84.9441 8.89976 85.2581C11.3436 85.886 13.8572 86.2349 16.3709 86.6535C21.4331 87.3861 26.5302 87.8745 31.6623 88.3977C26.5302 88.7815 21.3284 88.7117 16.1614 88.328C13.5779 88.1535 10.9945 87.7349 8.411 87.2116C7.11926 86.9326 5.82752 86.5837 4.57069 86.0605C3.34878 85.5023 1.91739 84.979 1.00969 83.2697C0.590745 82.2929 0.730401 81.4557 0.800224 80.7929C0.939872 80.0952 1.0446 79.4324 1.25407 78.8045C1.60319 77.5137 2.05704 76.2928 2.5109 75.0718C3.45351 72.6299 4.46596 70.2577 5.61805 67.9553C7.88731 63.3157 10.3312 58.7807 13.0892 54.4201L13.1241 54.3503Z" fill="#5FB06B"/>
  </g>
  <g style="mix-blend-mode:multiply">
    <path d="M30.7897 81.2812C26.1464 80.0603 21.6079 78.4905 17.1042 76.9207L16.6504 76.7462L16.8599 76.3276C18.5007 72.8043 20.2114 69.3158 22.0966 65.932C20.77 69.5949 19.2339 73.1531 17.6279 76.7114L17.3835 76.1183C21.8872 77.723 26.3908 79.3277 30.7897 81.3161V81.2812Z" fill="#5FB06B"/>
  </g>
  <path d="M99.8452 62.618C100.655 62.618 101.311 61.7434 101.311 60.6645C101.311 59.5856 100.655 58.7109 99.8452 58.7109C99.0354 58.7109 98.3789 59.5856 98.3789 60.6645C98.3789 61.7434 99.0354 62.618 99.8452 62.618Z" fill="#EEABA2"/>
  <g style="mix-blend-mode:multiply">
    <path d="M98.833 59.2691C98.8679 58.6411 99.636 58.0481 100.474 58.2923C101.277 58.5365 101.696 59.2691 101.905 59.897C102.01 60.5947 101.975 61.2924 101.591 61.8854C101.242 62.4784 100.474 62.9319 99.8455 62.618C100.369 62.304 100.509 61.8505 100.579 61.4319C100.648 61.0133 100.683 60.5947 100.544 60.2109C100.509 59.7923 100.299 59.4784 100.055 59.2691C99.8454 59.0598 99.3916 58.9551 98.833 59.2691Z" fill="#C26250"/>
  </g>
  <path d="M99.5309 61.9204C99.5309 61.9204 94.6782 62.5134 94.7131 64.1181C94.748 65.7228 98.1693 65.0949 98.1693 65.0949C98.1693 65.0949 96.6332 65.6879 97.122 66.9089C97.6108 68.1298 99.5309 67.6066 99.5309 67.6066C99.5309 67.6066 97.8551 68.1298 98.2043 69.2113C98.5534 70.2927 100.124 70.0136 100.124 70.0136C100.124 70.0136 98.8676 70.0485 99.112 71.2695C99.3564 72.4904 101.137 72.4207 102.533 71.7927C103.93 71.1648 102.743 69.4555 102.743 69.4555C102.743 69.4555 103.371 67.9903 102.743 65.06C102.114 62.1297 99.5309 61.8855 99.5309 61.8855V61.9204Z" fill="#EEABA2"/>
  <g style="mix-blend-mode:multiply">
    <path d="M100.823 72.2462C101.451 71.8625 102.359 71.723 102.638 71.3043C102.917 70.9555 102.603 70.2927 102.219 69.8392L102.045 69.6299L102.149 69.2462C102.324 68.688 102.359 67.9205 102.324 67.2228C102.254 66.5252 102.149 65.7577 102.045 65.0949C101.765 63.8041 100.823 62.7227 99.4961 62.3041H99.5659C98.8676 62.3041 98.1694 62.3739 97.4014 62.339C98.0647 62.025 98.7629 61.8157 99.4612 61.5715H99.531C100.404 61.6413 101.242 61.9553 101.94 62.5134C102.638 63.1065 103.092 63.9088 103.301 64.746C103.546 65.5484 103.651 66.3507 103.651 67.188C103.651 68.0252 103.581 68.8275 103.232 69.7345L103.162 69.1415C103.371 69.5601 103.546 69.9438 103.581 70.3973C103.651 70.8508 103.546 71.4439 103.127 71.7927C102.708 72.1416 102.289 72.1067 101.905 72.1416C101.521 72.1765 101.137 72.2113 100.753 72.2113L100.823 72.2462Z" fill="#C26250"/>
  </g>
  <path d="M95.9346 65.1646C96.8423 64.7111 97.7151 64.6064 98.6228 64.4669C99.5305 64.4669 100.438 64.3971 101.416 64.6762C100.543 65.1297 99.6352 65.2343 98.7275 65.3739C97.8198 65.3739 96.8772 65.4436 95.9346 65.1646Z" fill="#DB8579"/>
  <path d="M101.312 66.6647C100.998 67.3275 100.404 67.6763 99.7409 67.9554C99.3918 68.0252 99.0427 68.0949 98.6936 68.0601C98.3445 68.0252 97.9954 67.8507 97.751 67.6066C98.4492 67.4321 98.938 67.3275 99.4966 67.1182C100.055 66.9786 100.614 66.7693 101.312 66.6996V66.6647Z" fill="#DB8579"/>
  <path d="M101.8 69.281C101.661 69.874 101.102 70.188 100.613 70.3275C100.09 70.3973 99.531 70.3973 99.0771 69.9787C99.5659 69.6647 99.9848 69.595 100.404 69.4554C100.858 69.4205 101.207 69.3159 101.8 69.281Z" fill="#DB8579"/>
  <defs>
    <radialGradient id="paint0_radial_48_1157" cx="0" cy="0" r="1" gradientUnits="userSpaceOnUse" gradientTransform="translate(24.9248 31.961) rotate(69.8956) scale(5.48751 4.83833)">
      <stop stop-color="#F4C8D6"/>
      <stop offset="1" stop-color="white"/>
    </radialGradient>
    <radialGradient id="paint1_radial_48_1157" cx="0" cy="0" r="1" gradientUnits="userSpaceOnUse" gradientTransform="translate(45.195 23.4388) rotate(69.8956) scale(5.48751 4.83101)">
      <stop stop-color="#F4C8D6"/>
      <stop offset="1" stop-color="white"/>
    </radialGradient>
    <linearGradient id="paint2_linear_48_1157" x1="15.1144" y1="7.31448e-05" x2="15.1144" y2="26.024" gradientUnits="userSpaceOnUse">
      <stop stop-color="#903242"/>
      <stop offset="1" stop-color="#924F19"/>
    </linearGradient>
    <linearGradient id="paint3_linear_48_1157" x1="23.5975" y1="0.000116501" x2="23.5975" y2="26.024" gradientUnits="userSpaceOnUse">
      <stop stop-color="#903242"/>
      <stop offset="1" stop-color="#924F19"/>
    </linearGradient>
    <linearGradient id="paint4_linear_48_1157" x1="66.1213" y1="33.2101" x2="66.1213" y2="95.0257" gradientUnits="userSpaceOnUse">
      <stop stop-color="#863D00"/>
      <stop offset="1" stop-color="#633008"/>
    </linearGradient>
    <linearGradient id="paint5_linear_48_1157" x1="93.7363" y1="66.0714" x2="102.045" y2="66.0714" gradientUnits="userSpaceOnUse">
      <stop stop-color="white"/>
      <stop offset="0.51" stop-color="#E4D4C9"/>
      <stop offset="0.69" stop-color="#DECCBF"/>
      <stop offset="0.97" stop-color="#D0B7A7"/>
      <stop offset="1" stop-color="#CFB5A5"/>
    </linearGradient>
    <linearGradient id="paint6_linear_48_1157" x1="27.8574" y1="85.3626" x2="45.837" y2="85.3626" gradientUnits="userSpaceOnUse">
      <stop stop-color="white"/>
      <stop offset="0.51" stop-color="#E4D4C9"/>
      <stop offset="0.69" stop-color="#DECCBF"/>
      <stop offset="0.97" stop-color="#D0B7A7"/>
      <stop offset="1" stop-color="#CFB5A5"/>
    </linearGradient>
  </defs>
</svg>