<svg width="26" height="26" viewBox="0 0 26 26" fill="none" xmlns="http://www.w3.org/2000/svg">
<g id="mingcute:eye-close-line">
<g id="Group">
<path id="Vector" d="M3.30411 10.0859C3.25806 9.94836 3.24009 9.80299 3.25127 9.65839C3.26245 9.51379 3.30255 9.37291 3.36919 9.2441C3.43583 9.11529 3.52766 9.00117 3.63923 8.90851C3.7508 8.81585 3.87984 8.74654 4.01869 8.70468C4.15755 8.66282 4.3034 8.64926 4.44759 8.66482C4.59178 8.68038 4.73139 8.72473 4.85812 8.79525C4.98485 8.86576 5.09613 8.96101 5.18537 9.07533C5.2746 9.18966 5.33998 9.32074 5.37761 9.4608C7.63744 17.029 18.3581 17.0301 20.6201 9.46513C20.6607 9.3287 20.7277 9.20159 20.8173 9.09106C20.907 8.98053 21.0176 8.88874 21.1427 8.82094C21.2679 8.75314 21.4051 8.71065 21.5467 8.6959C21.6883 8.68115 21.8313 8.69442 21.9678 8.73497C22.1042 8.77551 22.2313 8.84253 22.3418 8.9322C22.4524 9.02187 22.5442 9.13244 22.612 9.25758C22.6798 9.38272 22.7223 9.51999 22.737 9.66156C22.7518 9.80312 22.7385 9.9462 22.6979 10.0826C22.304 11.4382 21.6355 12.6982 20.7339 13.7844L22.1151 15.1667C22.3124 15.371 22.4216 15.6447 22.4192 15.9287C22.4167 16.2128 22.3028 16.4845 22.1019 16.6854C21.9011 16.8862 21.6293 17.0001 21.3453 17.0026C21.0612 17.0051 20.7876 16.8959 20.5833 16.6986L19.163 15.2783C18.3967 15.8565 17.5499 16.3196 16.6497 16.6531L17.0364 18.0993C17.0777 18.238 17.0907 18.3836 17.0748 18.5274C17.0589 18.6713 17.0143 18.8105 16.9436 18.9368C16.873 19.0631 16.7778 19.174 16.6636 19.2629C16.5494 19.3518 16.4185 19.417 16.2787 19.4545C16.139 19.492 15.9931 19.5011 15.8497 19.4813C15.7064 19.4614 15.5684 19.4131 15.444 19.3391C15.3197 19.2651 15.2114 19.1669 15.1256 19.0503C15.0398 18.9338 14.9782 18.8012 14.9445 18.6605L14.5502 17.1904C13.5243 17.3421 12.4756 17.3421 11.4497 17.1904L11.0554 18.6605C11.0216 18.8012 10.9601 18.9338 10.8743 19.0503C10.7885 19.1669 10.6802 19.2651 10.5558 19.3391C10.4315 19.4131 10.2935 19.4614 10.1502 19.4813C10.0068 19.5011 9.86092 19.492 9.72114 19.4545C9.58135 19.417 9.4505 19.3518 9.3363 19.2629C9.2221 19.174 9.12688 19.0631 9.05625 18.9368C8.98562 18.8105 8.94102 18.6713 8.92508 18.5274C8.90914 18.3836 8.92218 18.238 8.96344 18.0993L9.35019 16.6531C8.44988 16.3193 7.60316 15.8558 6.83686 15.2772L5.41769 16.6986C5.21456 16.902 4.93893 17.0164 4.65146 17.0166C4.36398 17.0168 4.0882 16.9028 3.88477 16.6996C3.68135 16.4965 3.56696 16.2209 3.56676 15.9334C3.56655 15.6459 3.68056 15.3701 3.88369 15.1667L5.26494 13.7855C4.41561 12.7715 3.73744 11.5386 3.30194 10.087L3.30411 10.0859Z" fill="#6C3401"/>
</g>
</g>
</svg>
