<svg width="219" height="225" viewBox="0 0 219 225" fill="none" xmlns="http://www.w3.org/2000/svg">
<path d="M79.75 100C81.837 102.264 87.1587 105.433 91.75 100" stroke="#6C3401" stroke-width="4" stroke-linecap="round" stroke-linejoin="round"/>
<path d="M122.75 100C124.837 102.264 130.159 105.433 134.75 100" stroke="#6C3401" stroke-width="4" stroke-linecap="round" stroke-linejoin="round"/>
<path d="M118 125C114.522 127.264 105.652 130.433 98 125" stroke="#6C3401" stroke-width="4" stroke-linecap="round" stroke-linejoin="round"/>
<path d="M49 101.133C49 91.4267 57.03 87.7556 60.5449 88.0667C57.5 71 59.5868 33 105.603 33C151.62 33 157.372 69.7111 154.496 88.0667C156.413 89.9334 166 84.3334 166 101.133C166 114.573 157.052 117.311 152.579 117C147.785 130.067 138.198 159 105.603 159C79.5273 159 66.1544 131 62 117C53.3714 117 49 108.5 49 101.133Z" stroke="#6C3401" stroke-width="4" stroke-linecap="round" stroke-linejoin="round"/>
<path d="M81 150.5C82.5 160.833 81.9 181.5 67.5 181.5" stroke="#6C3401" stroke-width="4" stroke-linecap="round" stroke-linejoin="round"/>
<path d="M133.561 150.5C132.061 160.833 132.661 181.5 147.061 181.5" stroke="#6C3401" stroke-width="4" stroke-linecap="round" stroke-linejoin="round"/>
<path d="M112.171 91.6875C112.171 83.8125 107.469 79.6563 105.118 78.5625C106.88 85.125 93.6582 104.812 98.0662 94.9688C101.592 87.0938 97.1846 73.4583 94.5398 67.625C96.0091 73.0938 96.4793 84.0312 86.6056 84.0312C76.7318 84.0312 74.8503 96.4271 75.1438 102.625C65.9744 99.125 67.7976 85.125 69.8555 78.5625C60.687 82.9375 58.9826 96.4271 59.2764 102.625C50.108 99.125 53.1046 88.7708 55.7489 84.0312C52.2217 81.4062 48.4028 85.125 46.9343 87.3125C45.5237 79.4375 51.636 74.5521 54.8685 73.0938C42.879 74.8438 39.2939 67.9896 39 64.3438C43.4079 72 58.3949 61.0625 53.1054 52.3125C48.8737 45.3125 41.9386 49.3958 39 52.3125C43.9369 40.0625 56.9248 37 62.8016 37C56.4542 34.375 55.4551 27.8854 55.7489 24.9688C62.8016 31.0938 71.6175 27.5209 75.1438 24.9688C77.9649 19.7188 68.0911 17.6771 62.8016 17.3125C71.2648 9.43753 83.9599 14.0313 89.2495 17.3125C84.3124 11.1875 87.1924 4.55209 89.2495 2C88.9556 7.10417 91.7179 16.2188 105.118 11.8437C118.518 7.46872 128.333 18.7708 131.566 24.9688C133.681 17.9688 141.851 16.9479 145.671 17.3125C137.208 22.5625 143.908 32.625 148.316 37C156.779 37.875 157.131 29.3438 156.25 24.9688C162.597 26.7188 160.07 40.2813 158.013 46.8438C165.771 45.9688 171.237 55.9583 173 61.0625C162.421 56.6875 163.303 69.4479 165.066 76.375C168.592 83.375 167.71 93.1458 166.829 97.1562C166.124 89.2812 160.658 88.7708 158.013 89.5C154.487 91.25 155.368 101.896 156.25 107C149.197 106.125 148.022 96.4271 148.316 91.6875C146.2 95.1875 140.381 96.7917 137.737 97.1562C146.905 84.9062 135.68 74.5521 128.921 70.9063C126.805 77.0313 129.802 84.3958 131.566 87.3125C120.987 82.9375 117.46 72 117.46 78.5625C119.576 85.5625 114.815 90.2292 112.171 91.6875Z" fill="#FFE7A2" stroke="#6C3401" stroke-width="4" stroke-linecap="round" stroke-linejoin="round"/>
<path d="M43.5591 143.967C43.094 143.514 42.3896 143.411 41.8142 143.713C41.2388 144.015 40.9233 144.653 41.0326 145.293L42.4389 153.529L35.0405 157.412C34.4651 157.714 34.1495 158.352 34.2589 158.993C34.3683 159.633 34.8777 160.13 35.5207 160.224L43.7882 161.432L45.1945 169.668C45.3038 170.309 45.8132 170.806 46.4562 170.9C47.0993 170.994 47.7296 170.663 48.0177 170.08L51.721 162.591L59.9885 163.798C60.6315 163.892 61.2619 163.562 61.5499 162.979C61.838 162.396 61.7181 161.695 61.2531 161.241L55.2744 155.404L58.9778 147.915C59.2658 147.332 59.146 146.63 58.681 146.176C58.216 145.722 57.5116 145.62 56.9362 145.922L49.5378 149.804L43.5591 143.967Z" fill="#FFE7A2" stroke="#6C3401" stroke-width="3" stroke-linejoin="round"/>
<path d="M170.876 145.934C171.017 145.3 170.734 144.647 170.174 144.316C169.615 143.986 168.906 144.054 168.419 144.484L162.156 150.015L154.961 145.767C154.401 145.437 153.693 145.505 153.206 145.935C152.719 146.365 152.564 147.06 152.822 147.656L156.147 155.321L149.884 160.852C149.397 161.282 149.243 161.977 149.501 162.573C149.76 163.169 150.373 163.531 151.02 163.469L159.337 162.676L162.662 170.342C162.92 170.938 163.533 171.3 164.18 171.238C164.827 171.176 165.361 170.705 165.502 170.071L167.318 161.915L175.635 161.122C176.282 161.06 176.816 160.589 176.957 159.955C177.098 159.32 176.815 158.667 176.255 158.337L169.06 154.09L170.876 145.934Z" fill="#FFE7A2" stroke="#6C3401" stroke-width="3" stroke-linejoin="round"/>
<path d="M196.5 143.019C205.071 173.693 173.333 180.185 157 179.519L145 189.519C160.5 192.519 179.026 193.896 194.5 184.019C218 169.019 210.779 139.066 208.5 130.519C206.5 123.019 208 115.019 208.5 109.019C208 107.519 202 116.019 200 115.519C196.871 114.736 198.5 104.519 198 100.019C198 99.5185 187 109.019 196.5 143.019Z" fill="#E85A5A" stroke="#6C3401" stroke-width="4" stroke-linecap="round" stroke-linejoin="round"/>
<path d="M76.9999 173.904C86.5999 181.504 96.4999 182.904 107 182.904C117.5 182.904 124.449 180.602 134.5 177.404C145.5 173.904 142.691 168.095 147.5 172.903C154.5 179.903 157.114 176.882 156.5 182.403C156 186.903 149 191.237 141.5 193.903C101 207.403 73.5 196.403 64.9999 190.404C58.778 186.012 57.0911 182.904 59.9999 180.904C67.9998 175.403 67.3999 166.304 76.9999 173.904Z" fill="#E85A5A" stroke="#6C3401" stroke-width="4" stroke-linecap="round" stroke-linejoin="round"/>
<path d="M31 118H181L219 225H0L31 118Z" fill="url(#paint0_linear_48_1437)"/>
</svg>
