<svg width="38" height="38" viewBox="0 0 38 38" fill="none" xmlns="http://www.w3.org/2000/svg">
<g id="mingcute:search-line">
<g id="Group">
<path id="Vector" fill-rule="evenodd" clip-rule="evenodd" d="M16.6252 3.16666C14.4791 3.16684 12.3642 3.68023 10.4569 4.66401C8.5496 5.64778 6.90522 7.0734 5.66095 8.82193C4.41667 10.5705 3.60859 12.5912 3.30411 14.7156C2.99963 16.8399 3.20759 19.0063 3.91064 21.0339C4.61369 23.0616 5.79143 24.8917 7.34562 26.3716C8.8998 27.8515 10.7854 28.9382 12.845 29.5412C14.9046 30.1442 17.0785 30.2458 19.1854 29.8378C21.2923 29.4297 23.2711 28.5237 24.9567 27.1953L30.739 32.9777C31.0376 33.2661 31.4376 33.4257 31.8527 33.4221C32.2679 33.4184 32.665 33.2519 32.9585 32.9584C33.2521 32.6648 33.4186 32.2677 33.4222 31.8525C33.4258 31.4374 33.2662 31.0374 32.9778 30.7388L27.1955 24.9565C28.7598 22.972 29.7338 20.5871 30.0061 18.0749C30.2783 15.5627 29.8378 13.0245 28.7348 10.751C27.6319 8.47742 25.9112 6.5603 23.7696 5.21902C21.628 3.87774 19.1521 3.16649 16.6252 3.16666ZM6.33349 16.625C6.33349 13.8955 7.41779 11.2777 9.34785 9.34768C11.2779 7.41762 13.8956 6.33332 16.6252 6.33332C19.3547 6.33332 21.9724 7.41762 23.9025 9.34768C25.8325 11.2777 26.9168 13.8955 26.9168 16.625C26.9168 19.3545 25.8325 21.9722 23.9025 23.9023C21.9724 25.8324 19.3547 26.9167 16.6252 26.9167C13.8956 26.9167 11.2779 25.8324 9.34785 23.9023C7.41779 21.9722 6.33349 19.3545 6.33349 16.625Z" fill="#6C3401"/>
</g>
</g>
</svg>
