<svg width="26" height="26" viewBox="0 0 26 26" fill="none" xmlns="http://www.w3.org/2000/svg">
<g id="fluent:eye-12-filled">
<path id="Vector" d="M4.27733 14.4278C4.18035 14.6926 3.98393 14.9092 3.72983 15.0314C3.47573 15.1537 3.18397 15.1721 2.91654 15.0826C2.6491 14.9932 2.42708 14.803 2.29764 14.5525C2.1682 14.302 2.14154 14.0109 2.22333 13.741C2.26301 13.6221 2.30783 13.5028 2.35767 13.3878C2.44433 13.182 2.57217 12.8982 2.74767 12.5623C3.10517 11.8907 3.662 10.9958 4.48317 10.101C6.14067 8.29183 8.8555 6.5 13.0003 6.5C17.1452 6.5 19.86 8.29183 21.5175 10.101C22.4016 11.0721 23.119 12.1827 23.6408 13.3878L23.7405 13.6327C23.747 13.65 23.7687 13.7627 23.7903 13.871L23.8337 14.0833C23.8337 14.0833 24.0157 14.8048 23.0927 15.1103C22.8208 15.2011 22.5241 15.1805 22.2675 15.053C22.0108 14.9255 21.8152 14.7015 21.7233 14.43V14.4235L21.7103 14.3888L21.6432 14.2198C21.2176 13.2465 20.6357 12.3492 19.9207 11.5635C18.599 10.127 16.4388 8.66667 13.0003 8.66667C9.56183 8.66667 7.40167 10.1248 6.08 11.5657C5.36515 12.3507 4.78332 13.2472 4.3575 14.2198L4.2925 14.3888L4.27733 14.4278ZM8.667 15.1667C8.667 14.0174 9.12355 12.9152 9.9362 12.1025C10.7489 11.2899 11.8511 10.8333 13.0003 10.8333C14.1496 10.8333 15.2518 11.2899 16.0645 12.1025C16.8771 12.9152 17.3337 14.0174 17.3337 15.1667C17.3337 16.3159 16.8771 17.4181 16.0645 18.2308C15.2518 19.0435 14.1496 19.5 13.0003 19.5C11.8511 19.5 10.7489 19.0435 9.9362 18.2308C9.12355 17.4181 8.667 16.3159 8.667 15.1667Z" fill="#6C3401"/>
</g>
</svg>
